<?xml version='1.0' encoding='utf-8'?>
<svg xmlns="http://www.w3.org/2000/svg" xmlns:xlink="http://www.w3.org/1999/xlink" width="321px" height="21px" viewBox="0 0 3217 210" version="1.1">
<defs>
<path id="gl3587" d="M 64 2 C 61 3 61 3 60 8 C 59 10 58 13 57 14 C 57 15 55 17 55 19 C 54 21 53 23 52 24 C 51 25 50 28 49 30 C 49 32 48 34 47 36 C 46 36 45 39 45 40 C 45 42 43 44 43 45 C 42 46 41 49 40 51 C 40 52 39 55 38 57 C 37 58 36 60 36 61 C 36 63 34 65 33 66 C 33 67 31 70 31 72 C 30 73 29 76 28 76 C 27 78 26 81 25 82 C 25 85 24 87 24 88 C 22 88 22 91 21 93 C 21 94 19 97 18 99 C 18 101 16 103 16 105 C 15 108 12 111 7 111 C 3 111 1 112 1 117 C 1 123 1 123 21 123 C 42 123 41 123 41 117 C 41 112 40 111 32 111 C 31 111 30 111 29 110 C 29 109 29 108 30 108 C 30 103 32 98 34 95 C 35 93 36 91 36 91 C 36 90 37 88 38 86 C 39 84 40 81 40 80 C 41 77 42 75 43 75 C 43 75 53 74 64 74 C 82 74 83 74 84 75 C 86 76 88 83 88 90 C 89 92 90 96 91 99 C 94 108 93 111 88 111 C 84 111 83 112 83 117 C 82 123 82 123 103 123 C 123 123 123 123 123 117 C 123 113 121 111 118 111 C 110 111 109 110 108 104 C 107 102 106 99 105 97 C 105 95 103 91 103 89 C 103 86 102 83 101 81 C 100 80 99 76 99 72 C 98 69 97 64 96 63 C 95 61 94 57 93 55 C 93 52 92 48 91 45 C 90 43 89 38 88 36 C 88 33 87 30 86 28 C 85 27 84 22 84 19 C 83 15 82 12 81 10 C 81 9 80 7 80 6 C 79 1 78 1 72 1 C 69 1 65 1 64 2 M 71 22 C 72 24 75 34 75 37 C 75 37 76 40 76 42 C 78 45 81 58 81 61 C 81 63 78 64 65 64 C 58 64 51 63 51 63 C 49 61 50 54 52 51 C 54 51 54 48 55 46 C 56 45 57 42 57 41 C 58 40 59 37 60 35 C 60 33 61 30 62 29 C 63 28 64 26 64 24 C 66 19 66 18 68 19 C 69 19 70 21 71 22 z" fill="black"/><!-- width=131 height=144 -->
<path id="gl2307" d="M 13 14 C 12 15 10 20 11 22 C 12 24 15 25 18 25 C 21 24 21 25 22 25 C 24 26 25 31 24 33 C 24 34 24 39 23 44 C 22 65 21 73 20 75 C 19 76 19 80 19 82 C 19 85 18 90 18 93 C 18 97 17 100 16 101 C 14 105 22 108 29 105 C 32 103 32 103 33 90 C 33 82 34 77 36 73 C 36 73 37 70 37 67 C 38 64 39 61 40 60 C 40 59 42 57 42 55 C 42 54 43 52 44 51 C 45 50 46 48 46 46 C 50 39 58 30 64 28 C 66 27 68 26 68 26 C 69 25 75 28 75 30 C 77 33 76 56 74 62 C 73 64 73 66 73 67 C 73 67 73 69 73 71 C 72 72 72 77 72 81 C 70 94 70 99 68 100 C 68 101 67 102 67 103 C 67 103 68 103 68 104 C 69 105 70 105 81 106 C 95 106 96 106 96 102 C 96 101 97 99 97 99 C 97 98 96 97 96 96 C 94 94 94 94 91 94 C 84 94 84 93 85 79 C 85 77 86 70 87 63 C 88 57 88 50 89 48 C 89 46 90 41 90 36 C 90 34 90 31 90 28 C 89 27 88 25 87 24 C 84 16 79 13 71 14 C 66 14 65 14 63 16 C 61 17 59 18 59 18 C 57 18 49 27 47 30 C 46 31 45 33 45 34 C 44 34 43 36 43 37 C 42 39 41 41 39 43 C 37 45 36 46 36 47 C 36 48 36 49 36 50 C 36 51 35 51 35 52 C 34 51 34 50 34 49 C 33 46 33 40 34 37 C 36 36 36 35 36 34 C 36 33 37 28 37 24 C 40 13 40 13 25 13 C 19 13 14 13 13 14 z" fill="black"/><!-- width=107 height=112 -->
<path id="gl3330" d="M 46 13 C 40 13 39 14 36 16 C 36 16 34 18 32 18 C 31 18 29 19 27 21 C 26 22 24 23 24 24 C 22 24 19 30 16 34 C 15 35 14 37 13 38 C 13 39 12 42 12 43 C 12 45 10 48 9 52 C 8 57 7 59 7 69 C 7 82 7 86 10 93 C 12 99 13 100 21 104 C 22 105 32 105 34 105 C 37 103 44 99 45 97 C 46 96 47 95 48 94 C 50 91 54 85 55 82 C 55 81 57 79 58 78 C 59 76 60 75 60 73 C 61 68 62 67 63 70 C 64 74 63 84 62 88 C 61 91 60 95 60 106 C 59 112 58 114 57 118 C 56 119 55 121 54 123 C 54 124 51 128 48 131 C 48 132 45 133 43 133 C 41 135 38 135 37 136 C 33 137 24 137 20 135 C 15 133 4 130 4 130 C 3 131 3 133 3 136 C 3 141 4 143 7 144 C 8 144 10 145 13 146 C 14 147 15 147 16 148 C 21 148 25 148 30 148 C 35 148 39 148 44 148 C 46 147 48 146 51 145 C 58 141 63 137 66 130 C 67 129 68 126 68 126 C 69 125 69 122 70 120 C 70 117 71 114 72 113 C 72 112 73 110 73 109 C 73 108 73 106 73 105 C 73 104 74 99 74 93 C 75 75 76 54 77 49 C 78 45 79 31 79 27 C 79 26 79 24 80 22 C 81 20 81 20 79 18 C 78 17 76 16 75 16 C 75 16 72 16 70 15 C 67 15 63 13 61 13 C 58 13 55 13 54 13 C 53 13 49 13 46 13 M 61 25 C 66 26 66 34 61 46 C 61 48 60 52 60 54 C 60 55 58 58 58 60 C 57 61 55 64 55 66 C 54 68 53 70 52 71 C 52 72 51 73 49 76 C 49 78 48 79 48 79 C 47 80 46 81 46 82 C 43 87 34 94 30 94 C 28 94 24 90 22 88 C 19 84 20 56 24 48 C 25 46 26 43 26 42 C 27 38 34 30 38 28 C 39 28 42 27 43 25 C 48 24 56 23 61 25 z" fill="black"/><!-- width=91 height=155 -->
<path id="gl1538" d="M 45 9 C 43 9 42 10 40 10 C 39 11 37 12 36 13 C 34 13 32 15 31 16 C 31 16 30 18 28 18 C 28 19 27 20 26 21 C 25 22 24 24 24 25 C 21 28 17 36 16 39 C 16 40 16 42 15 43 C 15 44 15 46 15 47 C 15 48 14 51 13 52 C 11 58 14 82 18 87 C 18 87 20 89 21 91 C 22 93 24 94 27 96 C 29 97 32 98 33 99 C 36 100 57 100 61 98 C 63 97 66 96 68 96 C 72 94 73 93 73 87 C 75 81 73 79 67 82 C 66 82 66 82 66 82 C 66 84 62 85 58 85 C 57 86 55 87 54 87 C 52 88 43 88 42 88 C 41 87 39 87 37 86 C 28 83 23 71 27 64 C 28 62 30 62 36 62 C 43 62 47 61 52 59 C 54 58 56 57 57 57 C 63 55 73 46 76 40 C 79 34 79 34 79 28 C 79 23 79 22 78 21 C 77 19 75 18 75 16 C 73 15 72 13 70 13 C 69 12 67 11 66 10 C 64 9 51 8 45 9 M 60 21 C 65 24 66 24 66 30 C 66 33 65 35 64 37 C 63 40 56 45 53 46 C 51 47 49 49 47 49 C 45 50 42 51 39 52 C 37 52 33 54 31 54 C 30 55 28 55 28 55 C 27 55 25 52 25 49 C 26 46 31 33 33 31 C 34 31 35 30 36 28 C 39 21 54 17 60 21 z" fill="black"/><!-- width=86 height=107 -->
<path id="gl16651" d="M 7 9 C 7 9 6 9 6 9 C 5 9 4 14 4 15 C 4 18 5 19 12 19 C 18 19 20 19 21 22 C 21 23 21 24 21 24 C 21 25 21 27 20 28 C 19 30 19 31 18 43 C 17 63 15 82 15 85 C 14 85 13 90 13 94 C 12 118 11 133 9 138 C 9 141 9 141 10 142 C 10 143 12 143 23 143 C 37 144 37 144 37 138 C 38 133 37 132 31 132 C 28 132 25 132 25 132 C 24 131 24 117 25 115 C 26 114 26 114 28 86 C 29 70 30 61 30 58 C 31 55 33 36 32 32 C 32 26 34 15 35 13 C 36 11 35 9 32 9 C 28 8 10 8 7 9 z" fill="black"/><!-- width=44 height=150 -->
<path id="gl2561" d="M 30 7 C 28 7 25 8 24 9 C 22 10 21 11 20 11 C 18 12 13 16 12 19 C 12 20 10 22 10 22 C 7 24 7 36 9 40 C 11 43 16 49 19 49 C 20 50 22 51 24 52 C 25 52 27 54 29 54 C 31 55 33 56 34 57 C 36 57 37 58 39 59 C 43 60 46 60 46 61 C 46 61 47 62 48 63 C 52 65 54 72 51 78 C 48 85 34 89 24 86 C 18 84 17 83 18 76 C 18 70 17 69 13 69 C 7 69 6 71 6 81 C 6 84 6 87 5 88 C 4 91 5 91 10 94 C 21 99 43 99 49 95 C 49 94 51 94 52 93 C 55 91 60 87 61 85 C 61 84 62 83 63 82 C 66 79 66 64 63 61 C 63 60 61 58 61 57 C 60 56 59 55 58 54 C 57 54 56 53 55 52 C 54 51 51 50 49 49 C 48 49 45 48 43 47 C 42 46 40 45 37 45 C 36 45 34 44 33 43 C 32 42 30 41 27 40 C 21 37 19 32 22 25 C 23 22 23 22 28 19 C 34 17 34 17 40 17 C 51 17 54 19 54 26 C 53 32 55 34 60 34 C 65 34 66 33 66 22 C 66 10 66 10 58 8 C 51 6 36 5 30 7 z" fill="black"/><!-- width=73 height=105 -->
<path id="gl2305" d="M 24 1 C 19 4 16 11 17 15 C 20 22 30 24 35 18 C 37 15 38 14 37 10 C 36 4 29 0 24 1 M 4 46 C 3 48 3 52 4 54 C 6 55 6 56 10 55 C 17 55 18 55 17 63 C 17 66 17 70 16 71 C 16 73 16 77 16 80 C 15 82 15 86 15 87 C 14 90 13 103 13 106 C 13 111 11 127 10 130 C 8 136 9 136 24 137 C 37 137 37 137 37 132 C 37 127 36 125 32 126 C 25 126 22 123 25 115 C 26 112 27 108 27 100 C 27 90 28 78 30 66 C 30 63 30 60 31 58 C 33 52 33 48 31 46 C 30 45 6 44 4 46 z" fill="black"/><!-- width=44 height=156 -->
<path id="gl2307" d="M 13 14 C 12 15 10 20 11 22 C 12 24 15 25 18 25 C 21 24 21 25 22 25 C 24 26 25 31 24 33 C 24 34 24 39 23 44 C 22 65 21 73 20 75 C 19 76 19 80 19 82 C 19 85 18 90 18 93 C 18 97 17 100 16 101 C 14 105 22 108 29 105 C 32 103 32 103 33 90 C 33 82 34 77 36 73 C 36 73 37 70 37 67 C 38 64 39 61 40 60 C 40 59 42 57 42 55 C 42 54 43 52 44 51 C 45 50 46 48 46 46 C 50 39 58 30 64 28 C 66 27 68 26 68 26 C 69 25 75 28 75 30 C 77 33 76 56 74 62 C 73 64 73 66 73 67 C 73 67 73 69 73 71 C 72 72 72 77 72 81 C 70 94 70 99 68 100 C 68 101 67 102 67 103 C 67 103 68 103 68 104 C 69 105 70 105 81 106 C 95 106 96 106 96 102 C 96 101 97 99 97 99 C 97 98 96 97 96 96 C 94 94 94 94 91 94 C 84 94 84 93 85 79 C 85 77 86 70 87 63 C 88 57 88 50 89 48 C 89 46 90 41 90 36 C 90 34 90 31 90 28 C 89 27 88 25 87 24 C 84 16 79 13 71 14 C 66 14 65 14 63 16 C 61 17 59 18 59 18 C 57 18 49 27 47 30 C 46 31 45 33 45 34 C 44 34 43 36 43 37 C 42 39 41 41 39 43 C 37 45 36 46 36 47 C 36 48 36 49 36 50 C 36 51 35 51 35 52 C 34 51 34 50 34 49 C 33 46 33 40 34 37 C 36 36 36 35 36 34 C 36 33 37 28 37 24 C 40 13 40 13 25 13 C 19 13 14 13 13 14 z" fill="black"/><!-- width=107 height=112 -->
<path id="gl3587" d="M 64 2 C 61 3 61 3 60 8 C 59 10 58 13 57 14 C 57 15 55 17 55 19 C 54 21 53 23 52 24 C 51 25 50 28 49 30 C 49 32 48 34 47 36 C 46 36 45 39 45 40 C 45 42 43 44 43 45 C 42 46 41 49 40 51 C 40 52 39 55 38 57 C 37 58 36 60 36 61 C 36 63 34 65 33 66 C 33 67 31 70 31 72 C 30 73 29 76 28 76 C 27 78 26 81 25 82 C 25 85 24 87 24 88 C 22 88 22 91 21 93 C 21 94 19 97 18 99 C 18 101 16 103 16 105 C 15 108 12 111 7 111 C 3 111 1 112 1 117 C 1 123 1 123 21 123 C 42 123 41 123 41 117 C 41 112 40 111 32 111 C 31 111 30 111 29 110 C 29 109 29 108 30 108 C 30 103 32 98 34 95 C 35 93 36 91 36 91 C 36 90 37 88 38 86 C 39 84 40 81 40 80 C 41 77 42 75 43 75 C 43 75 53 74 64 74 C 82 74 83 74 84 75 C 86 76 88 83 88 90 C 89 92 90 96 91 99 C 94 108 93 111 88 111 C 84 111 83 112 83 117 C 82 123 82 123 103 123 C 123 123 123 123 123 117 C 123 113 121 111 118 111 C 110 111 109 110 108 104 C 107 102 106 99 105 97 C 105 95 103 91 103 89 C 103 86 102 83 101 81 C 100 80 99 76 99 72 C 98 69 97 64 96 63 C 95 61 94 57 93 55 C 93 52 92 48 91 45 C 90 43 89 38 88 36 C 88 33 87 30 86 28 C 85 27 84 22 84 19 C 83 15 82 12 81 10 C 81 9 80 7 80 6 C 79 1 78 1 72 1 C 69 1 65 1 64 2 M 71 22 C 72 24 75 34 75 37 C 75 37 76 40 76 42 C 78 45 81 58 81 61 C 81 63 78 64 65 64 C 58 64 51 63 51 63 C 49 61 50 54 52 51 C 54 51 54 48 55 46 C 56 45 57 42 57 41 C 58 40 59 37 60 35 C 60 33 61 30 62 29 C 63 28 64 26 64 24 C 66 19 66 18 68 19 C 69 19 70 21 71 22 z" fill="black"/><!-- width=131 height=144 -->
<path id="gl3840" d="M 12 16 C 10 18 10 24 12 26 C 13 27 13 27 18 27 C 21 27 23 28 24 28 C 25 30 25 36 25 39 C 24 41 24 45 24 48 C 23 51 22 55 22 56 C 22 57 21 63 21 69 C 20 82 19 87 18 94 C 14 108 15 108 24 108 C 31 108 31 108 31 103 C 31 100 32 97 33 94 C 34 91 34 85 35 81 C 36 77 37 73 37 70 C 39 68 40 64 40 62 C 41 60 42 57 43 56 C 43 55 45 53 45 52 C 45 51 46 49 48 47 C 49 46 50 45 50 44 C 50 43 52 40 57 34 C 62 28 70 28 73 32 C 75 34 75 48 75 55 C 74 57 73 64 73 69 C 72 74 71 81 71 83 C 69 89 67 104 68 106 C 69 108 70 108 75 108 C 83 108 84 107 84 96 C 84 92 84 88 85 85 C 86 82 87 79 87 76 C 89 68 90 67 91 64 C 91 62 93 58 93 57 C 94 55 94 53 96 52 C 96 51 97 49 98 48 C 99 46 100 45 100 45 C 101 44 102 42 103 41 C 105 37 112 31 114 30 C 115 30 117 30 118 29 C 120 27 126 31 126 35 C 127 40 126 63 124 64 C 124 66 123 71 122 83 C 121 88 121 93 121 94 C 120 95 120 97 120 99 C 120 100 120 102 118 103 C 117 107 120 108 134 108 C 147 108 147 108 147 103 C 148 98 145 96 141 96 C 135 97 134 93 138 66 C 139 62 139 57 139 56 C 139 55 139 52 140 49 C 142 42 141 31 138 25 C 137 23 136 21 135 20 C 134 20 133 19 132 18 C 128 15 116 15 113 18 C 112 19 110 20 109 21 C 106 21 100 28 97 32 C 96 35 94 37 92 42 C 91 43 91 45 90 44 C 89 44 88 38 87 34 C 87 25 82 18 75 16 C 71 15 66 16 63 18 C 61 18 60 20 58 21 C 57 21 55 22 55 22 C 55 23 54 24 48 31 C 46 32 45 34 45 34 C 45 35 44 37 43 38 C 42 39 41 42 40 43 C 40 46 38 49 37 48 C 34 46 35 37 39 23 C 39 22 40 20 40 18 C 40 18 39 18 39 17 C 37 15 14 15 12 16 z" fill="black"/><!-- width=158 height=115 -->
<path id="gl1538" d="M 45 9 C 43 9 42 10 40 10 C 39 11 37 12 36 13 C 34 13 32 15 31 16 C 31 16 30 18 28 18 C 28 19 27 20 26 21 C 25 22 24 24 24 25 C 21 28 17 36 16 39 C 16 40 16 42 15 43 C 15 44 15 46 15 47 C 15 48 14 51 13 52 C 11 58 14 82 18 87 C 18 87 20 89 21 91 C 22 93 24 94 27 96 C 29 97 32 98 33 99 C 36 100 57 100 61 98 C 63 97 66 96 68 96 C 72 94 73 93 73 87 C 75 81 73 79 67 82 C 66 82 66 82 66 82 C 66 84 62 85 58 85 C 57 86 55 87 54 87 C 52 88 43 88 42 88 C 41 87 39 87 37 86 C 28 83 23 71 27 64 C 28 62 30 62 36 62 C 43 62 47 61 52 59 C 54 58 56 57 57 57 C 63 55 73 46 76 40 C 79 34 79 34 79 28 C 79 23 79 22 78 21 C 77 19 75 18 75 16 C 73 15 72 13 70 13 C 69 12 67 11 66 10 C 64 9 51 8 45 9 M 60 21 C 65 24 66 24 66 30 C 66 33 65 35 64 37 C 63 40 56 45 53 46 C 51 47 49 49 47 49 C 45 50 42 51 39 52 C 37 52 33 54 31 54 C 30 55 28 55 28 55 C 27 55 25 52 25 49 C 26 46 31 33 33 31 C 34 31 35 30 36 28 C 39 21 54 17 60 21 z" fill="black"/><!-- width=86 height=107 -->
<path id="gl2304" d="M 29 28 C 26 29 25 36 28 38 C 29 40 29 40 33 40 C 37 39 39 41 39 45 C 39 48 37 67 37 75 C 36 79 36 85 36 88 C 35 92 34 95 34 96 C 34 97 33 105 32 114 C 31 120 32 121 38 121 C 43 121 46 120 47 117 C 47 116 47 111 47 106 C 48 98 48 97 49 89 C 51 84 52 78 52 76 C 52 73 54 69 54 67 C 55 65 57 62 57 61 C 57 60 58 58 59 57 C 60 55 61 53 62 52 C 63 51 63 49 64 49 C 64 49 66 48 67 46 C 69 43 76 42 81 43 C 85 43 86 43 87 36 C 88 30 87 28 84 28 C 81 27 72 28 70 30 C 69 30 67 31 66 33 C 64 34 63 35 62 36 C 61 37 60 39 60 39 C 59 40 58 42 57 44 C 57 46 55 48 54 49 C 53 50 52 52 51 54 C 49 58 49 58 48 54 C 48 51 48 51 49 48 C 50 46 51 45 51 43 C 51 41 51 39 51 37 C 53 28 53 28 40 28 C 34 28 30 28 29 28 z" fill="black"/><!-- width=98 height=127 -->
<path id="gl2305" d="M 24 1 C 19 4 16 11 17 15 C 20 22 30 24 35 18 C 37 15 38 14 37 10 C 36 4 29 0 24 1 M 4 46 C 3 48 3 52 4 54 C 6 55 6 56 10 55 C 17 55 18 55 17 63 C 17 66 17 70 16 71 C 16 73 16 77 16 80 C 15 82 15 86 15 87 C 14 90 13 103 13 106 C 13 111 11 127 10 130 C 8 136 9 136 24 137 C 37 137 37 137 37 132 C 37 127 36 125 32 126 C 25 126 22 123 25 115 C 26 112 27 108 27 100 C 27 90 28 78 30 66 C 30 63 30 60 31 58 C 33 52 33 48 31 46 C 30 45 6 44 4 46 z" fill="black"/><!-- width=44 height=156 -->
<path id="gl3589" d="M 48 9 C 46 9 45 10 44 10 C 43 11 41 12 39 13 C 37 13 35 15 33 16 C 30 19 30 20 27 22 C 25 24 24 26 24 27 C 23 28 22 31 21 32 C 20 33 19 36 18 40 C 18 43 17 48 16 51 C 14 58 15 69 18 75 C 18 76 19 78 19 80 C 19 82 21 84 22 85 C 22 87 24 88 24 88 C 24 89 28 94 31 95 C 32 96 34 97 34 97 C 37 101 58 101 65 97 C 67 97 69 96 70 96 C 72 95 73 94 73 90 C 74 83 72 79 69 82 C 67 84 54 88 51 88 C 43 88 36 84 33 78 C 32 76 31 74 30 73 C 28 69 28 45 31 40 C 32 39 33 37 33 35 C 34 31 41 24 47 21 C 59 16 66 18 64 28 C 64 33 67 35 72 34 C 76 34 77 33 77 25 C 78 9 78 9 62 9 C 55 9 49 9 48 9 z" fill="black"/><!-- width=84 height=107 -->
<path id="gl2048" d="M 46 2 C 44 3 41 3 40 4 C 39 5 36 6 35 7 C 34 7 32 8 31 9 C 30 10 28 11 27 12 C 26 12 24 13 24 15 C 23 16 22 18 21 18 C 21 19 19 21 18 22 C 18 24 16 27 16 27 C 15 28 15 30 13 37 C 12 40 12 43 10 45 C 8 52 9 74 12 78 C 12 78 13 80 13 81 C 15 86 15 87 22 91 C 28 94 37 94 42 91 C 43 90 45 88 45 88 C 46 88 51 84 52 81 C 54 79 54 78 55 78 C 55 78 56 76 57 75 C 57 73 58 71 60 70 C 61 68 62 66 63 64 C 63 62 63 60 64 60 C 64 59 64 58 64 58 C 65 58 65 60 66 60 C 67 63 66 73 65 76 C 64 78 63 82 62 90 C 61 94 63 94 74 94 C 86 94 87 94 88 90 C 88 89 89 87 89 87 C 89 87 85 83 84 82 C 84 82 82 82 81 82 C 75 83 75 82 76 63 C 76 57 76 51 76 48 C 76 45 77 42 78 40 C 78 39 78 36 78 33 C 78 31 79 28 79 27 C 80 26 81 21 81 13 C 82 7 81 6 76 5 C 75 4 72 4 69 3 C 66 2 51 1 46 2 M 64 13 C 69 15 69 23 64 35 C 64 38 63 42 62 44 C 61 46 60 49 60 51 C 59 52 58 55 57 57 C 57 59 55 61 55 62 C 54 63 53 65 52 66 C 51 70 42 79 38 80 C 31 82 27 80 24 75 C 22 70 23 42 26 37 C 27 36 28 33 28 31 C 29 28 30 26 36 21 C 39 17 43 15 51 13 C 54 12 63 12 64 13 z" fill="black"/><!-- width=98 height=101 -->
<path id="gl3586" d="M 16 39 C 13 39 13 40 13 54 C 12 58 12 62 12 66 C 12 67 13 67 13 67 C 15 69 19 69 22 68 C 24 67 26 63 27 59 C 27 55 27 52 29 51 C 30 51 34 50 42 50 C 46 50 51 49 55 49 C 55 50 55 51 56 51 C 57 53 57 63 54 73 C 53 82 52 92 51 103 C 51 110 51 118 50 121 C 50 124 49 130 49 133 C 49 141 48 143 46 146 C 45 148 45 148 42 148 C 39 148 37 148 37 153 C 36 154 36 156 36 156 C 36 157 36 158 37 159 C 37 159 37 159 38 160 C 44 160 50 160 56 160 C 76 160 76 160 76 155 C 76 150 75 148 68 148 C 64 148 63 148 63 147 C 62 145 63 127 66 115 C 66 114 66 108 66 102 C 68 78 70 54 71 52 C 72 50 73 49 87 50 C 100 51 99 49 99 60 C 100 66 100 67 101 68 C 103 70 111 69 111 66 C 112 62 114 55 114 51 C 114 49 114 46 114 44 C 115 42 115 41 114 40 C 112 39 112 39 65 39 C 39 39 18 39 16 39 z" fill="black"/><!-- width=121 height=166 -->
<path id="gl3338" d="M 19 2 C 18 4 18 10 19 12 C 21 13 21 13 27 13 C 28 13 31 13 33 13 C 33 15 33 15 33 16 C 34 19 34 21 33 27 C 32 37 32 39 31 49 C 31 53 30 57 30 57 C 30 57 30 61 30 66 C 28 87 28 98 27 99 C 27 100 27 102 27 103 C 27 104 26 106 25 108 C 25 110 24 116 24 121 C 24 126 23 131 22 132 C 22 134 22 135 23 136 C 25 139 37 138 38 135 C 38 134 39 130 39 127 C 39 117 40 111 42 107 C 42 105 43 101 43 98 C 45 95 45 92 46 91 C 46 91 48 89 48 87 C 48 85 49 82 51 81 C 51 80 52 78 53 76 C 54 75 55 73 55 73 C 56 72 57 70 58 69 C 60 65 66 61 70 60 C 72 58 73 58 74 57 C 75 57 79 60 81 61 C 82 63 82 68 82 76 C 81 88 79 101 78 102 C 78 103 78 108 77 113 C 76 127 75 129 74 132 C 72 136 75 137 89 137 C 102 137 102 137 102 132 C 103 127 102 125 96 125 C 91 126 91 126 91 115 C 91 109 92 104 92 102 C 95 84 96 78 96 68 C 96 60 96 58 94 57 C 94 57 93 54 92 52 C 91 51 90 49 90 49 C 90 49 88 48 87 47 C 85 45 85 45 79 45 C 74 45 72 45 71 46 C 70 46 67 48 66 49 C 63 51 55 58 54 61 C 53 62 52 64 51 64 C 51 65 49 67 48 69 C 47 72 46 73 45 73 C 43 73 42 70 43 60 C 43 57 44 51 44 48 C 45 44 45 40 45 39 C 46 39 46 36 46 33 C 46 31 46 28 47 27 C 47 27 48 23 48 19 C 48 16 49 11 49 8 C 49 1 50 1 34 1 C 22 1 21 1 19 2 z" fill="black"/><!-- width=113 height=151 -->
<path id="gl1538" d="M 45 9 C 43 9 42 10 40 10 C 39 11 37 12 36 13 C 34 13 32 15 31 16 C 31 16 30 18 28 18 C 28 19 27 20 26 21 C 25 22 24 24 24 25 C 21 28 17 36 16 39 C 16 40 16 42 15 43 C 15 44 15 46 15 47 C 15 48 14 51 13 52 C 11 58 14 82 18 87 C 18 87 20 89 21 91 C 22 93 24 94 27 96 C 29 97 32 98 33 99 C 36 100 57 100 61 98 C 63 97 66 96 68 96 C 72 94 73 93 73 87 C 75 81 73 79 67 82 C 66 82 66 82 66 82 C 66 84 62 85 58 85 C 57 86 55 87 54 87 C 52 88 43 88 42 88 C 41 87 39 87 37 86 C 28 83 23 71 27 64 C 28 62 30 62 36 62 C 43 62 47 61 52 59 C 54 58 56 57 57 57 C 63 55 73 46 76 40 C 79 34 79 34 79 28 C 79 23 79 22 78 21 C 77 19 75 18 75 16 C 73 15 72 13 70 13 C 69 12 67 11 66 10 C 64 9 51 8 45 9 M 60 21 C 65 24 66 24 66 30 C 66 33 65 35 64 37 C 63 40 56 45 53 46 C 51 47 49 49 47 49 C 45 50 42 51 39 52 C 37 52 33 54 31 54 C 30 55 28 55 28 55 C 27 55 25 52 25 49 C 26 46 31 33 33 31 C 34 31 35 30 36 28 C 39 21 54 17 60 21 z" fill="black"/><!-- width=86 height=107 -->
<path id="gl3842" d="M 66 2 C 64 3 61 3 60 4 C 58 5 55 6 53 7 C 51 7 49 8 49 9 C 48 10 46 10 45 11 C 42 13 40 15 34 21 C 34 21 33 22 32 24 C 31 25 30 26 30 27 C 29 27 28 29 27 30 C 27 32 25 34 25 36 C 24 37 22 40 22 41 C 22 43 21 45 21 47 C 17 54 17 82 21 88 C 21 89 22 91 22 93 C 23 96 24 98 24 99 C 25 100 26 102 27 103 C 28 106 34 111 37 114 C 39 114 40 115 41 116 C 42 117 44 117 46 118 C 48 119 50 120 51 120 C 56 124 85 124 93 120 C 95 120 98 118 100 118 C 105 117 106 116 106 112 C 106 110 106 106 106 104 C 107 102 108 96 108 93 C 109 82 110 80 114 81 C 118 81 121 79 121 74 C 121 69 121 69 102 69 C 84 69 84 69 82 72 C 82 76 82 77 84 79 C 86 81 87 81 90 81 C 95 80 96 83 95 93 C 94 105 94 106 93 107 C 88 110 70 112 66 111 C 65 110 62 109 60 109 C 53 108 52 107 48 104 C 46 102 45 102 45 102 C 45 102 44 100 43 99 C 42 98 41 96 39 94 C 38 93 37 91 37 90 C 37 90 36 87 35 85 C 32 76 32 55 36 47 C 36 45 37 43 37 41 C 38 39 38 37 39 36 C 40 36 41 34 42 33 C 43 30 49 24 52 22 C 54 21 56 19 57 19 C 58 18 60 17 62 16 C 64 16 67 15 70 15 C 76 12 86 13 93 15 C 99 16 100 17 99 24 C 99 26 99 28 99 30 C 100 33 106 33 111 31 C 111 30 112 30 113 30 C 113 26 113 23 114 19 C 114 11 114 9 113 8 C 112 7 106 5 102 3 C 96 2 75 1 66 2 z" fill="black"/><!-- width=131 height=131 -->
<path id="gl2304" d="M 29 28 C 26 29 25 36 28 38 C 29 40 29 40 33 40 C 37 39 39 41 39 45 C 39 48 37 67 37 75 C 36 79 36 85 36 88 C 35 92 34 95 34 96 C 34 97 33 105 32 114 C 31 120 32 121 38 121 C 43 121 46 120 47 117 C 47 116 47 111 47 106 C 48 98 48 97 49 89 C 51 84 52 78 52 76 C 52 73 54 69 54 67 C 55 65 57 62 57 61 C 57 60 58 58 59 57 C 60 55 61 53 62 52 C 63 51 63 49 64 49 C 64 49 66 48 67 46 C 69 43 76 42 81 43 C 85 43 86 43 87 36 C 88 30 87 28 84 28 C 81 27 72 28 70 30 C 69 30 67 31 66 33 C 64 34 63 35 62 36 C 61 37 60 39 60 39 C 59 40 58 42 57 44 C 57 46 55 48 54 49 C 53 50 52 52 51 54 C 49 58 49 58 48 54 C 48 51 48 51 49 48 C 50 46 51 45 51 43 C 51 41 51 39 51 37 C 53 28 53 28 40 28 C 34 28 30 28 29 28 z" fill="black"/><!-- width=98 height=127 -->
<path id="gl2305" d="M 24 1 C 19 4 16 11 17 15 C 20 22 30 24 35 18 C 37 15 38 14 37 10 C 36 4 29 0 24 1 M 4 46 C 3 48 3 52 4 54 C 6 55 6 56 10 55 C 17 55 18 55 17 63 C 17 66 17 70 16 71 C 16 73 16 77 16 80 C 15 82 15 86 15 87 C 14 90 13 103 13 106 C 13 111 11 127 10 130 C 8 136 9 136 24 137 C 37 137 37 137 37 132 C 37 127 36 125 32 126 C 25 126 22 123 25 115 C 26 112 27 108 27 100 C 27 90 28 78 30 66 C 30 63 30 60 31 58 C 33 52 33 48 31 46 C 30 45 6 44 4 46 z" fill="black"/><!-- width=44 height=156 -->
<path id="gl3595" d="M 85 18 C 78 19 75 20 74 21 C 74 22 73 22 71 23 C 68 24 64 27 60 33 C 58 35 55 46 55 55 C 54 62 54 62 47 62 C 40 62 39 63 39 67 C 39 72 40 73 46 73 C 49 73 52 73 52 74 C 54 75 54 84 51 97 C 51 100 51 104 50 106 C 50 108 50 110 49 112 C 49 114 49 123 48 133 C 48 145 47 152 46 157 C 45 160 45 165 44 167 C 43 172 42 175 41 176 C 40 176 39 177 39 178 C 36 183 29 184 19 183 C 10 181 9 183 10 192 C 10 196 11 197 18 198 C 29 198 36 198 40 195 C 40 194 42 193 43 193 C 46 192 53 185 54 181 C 55 180 56 177 57 175 C 58 173 59 171 59 169 C 59 168 60 160 61 155 C 61 153 62 151 62 150 C 62 148 62 145 62 144 C 63 143 63 138 63 132 C 64 116 64 112 65 104 C 65 99 66 93 66 90 C 66 80 67 74 70 73 C 70 73 74 73 77 73 C 88 75 91 73 92 70 C 94 63 91 61 79 62 C 67 63 67 62 69 52 C 69 50 69 47 70 46 C 70 45 72 43 73 41 C 74 38 78 34 81 33 C 82 33 84 33 84 33 C 87 30 98 31 102 33 C 105 34 108 33 109 29 C 110 26 108 20 106 19 C 105 18 94 18 85 18 z" fill="black"/><!-- width=118 height=204 -->
<path id="gl1793" d="M 38 5 C 31 7 30 9 30 19 C 31 29 30 30 25 29 C 18 28 15 30 15 34 C 15 39 17 40 23 39 C 31 39 31 39 30 49 C 30 54 30 58 30 59 C 30 60 29 64 29 67 C 28 70 28 75 28 77 C 27 78 27 81 27 81 C 27 82 27 84 27 86 C 25 88 25 91 25 97 C 25 106 25 106 27 108 C 28 109 29 112 30 113 C 30 114 31 115 32 117 C 33 117 35 118 36 119 C 37 120 39 120 46 120 C 58 120 59 120 64 117 C 68 113 69 111 67 105 C 66 102 66 102 64 103 C 63 105 62 105 61 105 C 61 105 58 106 55 107 C 48 109 44 109 40 105 C 39 104 39 96 40 86 C 40 82 40 79 40 78 C 40 77 40 75 40 72 C 42 66 43 58 43 51 C 43 44 44 40 45 39 C 46 39 50 39 56 40 C 67 41 68 41 70 36 C 72 33 72 31 70 30 C 67 28 68 28 51 29 C 43 30 42 28 43 24 C 43 23 44 19 45 15 C 45 12 45 9 45 9 C 46 8 45 6 43 5 C 42 4 42 4 38 5 z" fill="black"/><!-- width=80 height=127 -->
<path id="gl1538" d="M 45 9 C 43 9 42 10 40 10 C 39 11 37 12 36 13 C 34 13 32 15 31 16 C 31 16 30 18 28 18 C 28 19 27 20 26 21 C 25 22 24 24 24 25 C 21 28 17 36 16 39 C 16 40 16 42 15 43 C 15 44 15 46 15 47 C 15 48 14 51 13 52 C 11 58 14 82 18 87 C 18 87 20 89 21 91 C 22 93 24 94 27 96 C 29 97 32 98 33 99 C 36 100 57 100 61 98 C 63 97 66 96 68 96 C 72 94 73 93 73 87 C 75 81 73 79 67 82 C 66 82 66 82 66 82 C 66 84 62 85 58 85 C 57 86 55 87 54 87 C 52 88 43 88 42 88 C 41 87 39 87 37 86 C 28 83 23 71 27 64 C 28 62 30 62 36 62 C 43 62 47 61 52 59 C 54 58 56 57 57 57 C 63 55 73 46 76 40 C 79 34 79 34 79 28 C 79 23 79 22 78 21 C 77 19 75 18 75 16 C 73 15 72 13 70 13 C 69 12 67 11 66 10 C 64 9 51 8 45 9 M 60 21 C 65 24 66 24 66 30 C 66 33 65 35 64 37 C 63 40 56 45 53 46 C 51 47 49 49 47 49 C 45 50 42 51 39 52 C 37 52 33 54 31 54 C 30 55 28 55 28 55 C 27 55 25 52 25 49 C 26 46 31 33 33 31 C 34 31 35 30 36 28 C 39 21 54 17 60 21 z" fill="black"/><!-- width=86 height=107 -->
<path id="gl2304" d="M 29 28 C 26 29 25 36 28 38 C 29 40 29 40 33 40 C 37 39 39 41 39 45 C 39 48 37 67 37 75 C 36 79 36 85 36 88 C 35 92 34 95 34 96 C 34 97 33 105 32 114 C 31 120 32 121 38 121 C 43 121 46 120 47 117 C 47 116 47 111 47 106 C 48 98 48 97 49 89 C 51 84 52 78 52 76 C 52 73 54 69 54 67 C 55 65 57 62 57 61 C 57 60 58 58 59 57 C 60 55 61 53 62 52 C 63 51 63 49 64 49 C 64 49 66 48 67 46 C 69 43 76 42 81 43 C 85 43 86 43 87 36 C 88 30 87 28 84 28 C 81 27 72 28 70 30 C 69 30 67 31 66 33 C 64 34 63 35 62 36 C 61 37 60 39 60 39 C 59 40 58 42 57 44 C 57 46 55 48 54 49 C 53 50 52 52 51 54 C 49 58 49 58 48 54 C 48 51 48 51 49 48 C 50 46 51 45 51 43 C 51 41 51 39 51 37 C 53 28 53 28 40 28 C 34 28 30 28 29 28 z" fill="black"/><!-- width=98 height=127 -->
<path id="gl2561" d="M 30 7 C 28 7 25 8 24 9 C 22 10 21 11 20 11 C 18 12 13 16 12 19 C 12 20 10 22 10 22 C 7 24 7 36 9 40 C 11 43 16 49 19 49 C 20 50 22 51 24 52 C 25 52 27 54 29 54 C 31 55 33 56 34 57 C 36 57 37 58 39 59 C 43 60 46 60 46 61 C 46 61 47 62 48 63 C 52 65 54 72 51 78 C 48 85 34 89 24 86 C 18 84 17 83 18 76 C 18 70 17 69 13 69 C 7 69 6 71 6 81 C 6 84 6 87 5 88 C 4 91 5 91 10 94 C 21 99 43 99 49 95 C 49 94 51 94 52 93 C 55 91 60 87 61 85 C 61 84 62 83 63 82 C 66 79 66 64 63 61 C 63 60 61 58 61 57 C 60 56 59 55 58 54 C 57 54 56 53 55 52 C 54 51 51 50 49 49 C 48 49 45 48 43 47 C 42 46 40 45 37 45 C 36 45 34 44 33 43 C 32 42 30 41 27 40 C 21 37 19 32 22 25 C 23 22 23 22 28 19 C 34 17 34 17 40 17 C 51 17 54 19 54 26 C 53 32 55 34 60 34 C 65 34 66 33 66 22 C 66 10 66 10 58 8 C 51 6 36 5 30 7 z" fill="black"/><!-- width=73 height=105 -->
</defs>
<use xlink:href="#gl3587" x="0" y="37"/>
<use xlink:href="#gl2307" x="124" y="54"/>
<use xlink:href="#gl3330" x="231" y="55"/>
<use xlink:href="#gl1538" x="313" y="60"/>
<use xlink:href="#gl16651" x="398" y="16"/>
<use xlink:href="#gl2561" x="446" y="62"/>
<use xlink:href="#gl2305" x="571" y="23"/>
<use xlink:href="#gl2307" x="613" y="54"/>
<use xlink:href="#gl3587" x="754" y="37"/>
<use xlink:href="#gl3840" x="874" y="52"/>
<use xlink:href="#gl1538" x="1023" y="60"/>
<use xlink:href="#gl2304" x="1088" y="39"/>
<use xlink:href="#gl2305" x="1180" y="23"/>
<use xlink:href="#gl3589" x="1217" y="60"/>
<use xlink:href="#gl2048" x="1299" y="66"/>
<use xlink:href="#gl3586" x="2308" y="0"/>
<use xlink:href="#gl3338" x="2407" y="23"/>
<use xlink:href="#gl1538" x="2511" y="60"/>
<use xlink:href="#gl3842" x="2634" y="37"/>
<use xlink:href="#gl2304" x="2744" y="39"/>
<use xlink:href="#gl2305" x="2831" y="23"/>
<use xlink:href="#gl3595" x="2844" y="6"/>
<use xlink:href="#gl1793" x="2925" y="39"/>
<use xlink:href="#gl1538" x="2986" y="60"/>
<use xlink:href="#gl2304" x="3056" y="39"/>
<use xlink:href="#gl2561" x="3144" y="62"/>
</svg>
