<?xml version='1.0' encoding='utf-8'?>
<svg xmlns="http://www.w3.org/2000/svg" xmlns:xlink="http://www.w3.org/1999/xlink" width="249px" height="20px" viewBox="0 0 2491 204" version="1.1">
<defs>
<path id="gl10243" d="M 86 3 C 83 3 79 4 78 4 C 76 6 72 6 69 7 C 67 7 63 9 61 9 C 59 10 56 12 54 12 C 53 13 51 13 51 14 C 51 14 49 15 48 16 C 46 16 44 18 43 19 C 41 21 40 22 39 22 C 39 22 37 23 37 24 C 36 25 34 27 34 27 C 33 27 33 28 31 30 C 31 31 30 32 30 32 C 29 32 28 34 27 35 C 26 37 25 39 24 40 C 24 40 22 42 22 43 C 22 45 21 47 20 49 C 18 51 18 52 17 57 C 16 61 16 65 15 67 C 12 78 12 101 16 110 C 16 111 16 114 17 116 C 18 119 19 122 20 124 C 21 125 22 127 22 129 C 22 130 23 132 24 132 C 25 133 26 135 27 136 C 28 139 39 149 42 151 C 43 151 45 153 46 154 C 47 154 48 156 49 156 C 49 156 51 156 54 157 C 55 159 60 160 63 160 C 67 162 71 163 73 163 C 79 165 107 165 114 163 C 119 162 121 162 133 160 C 138 160 142 159 143 159 C 144 158 147 157 148 157 C 152 157 152 157 151 133 C 151 121 151 111 151 109 C 151 107 153 107 159 108 C 166 108 166 108 166 95 C 166 87 166 84 165 83 C 164 80 163 80 150 81 C 141 82 122 82 111 81 C 101 79 100 81 100 93 C 100 108 100 108 110 107 C 119 106 119 106 119 120 C 119 124 119 127 119 132 C 118 132 117 133 117 133 C 113 136 111 137 99 136 C 88 136 88 136 85 135 C 84 134 81 133 79 132 C 75 132 73 130 67 124 C 61 118 60 117 59 115 C 59 114 58 112 57 111 C 55 110 55 106 54 102 C 54 101 54 98 53 96 C 51 90 51 78 52 73 C 54 72 54 69 54 66 C 55 61 55 59 56 58 C 57 57 58 55 59 53 C 60 51 61 49 62 49 C 63 48 64 47 64 46 C 64 46 66 45 66 44 C 67 43 69 43 69 42 C 69 41 70 40 71 40 C 72 39 74 38 75 37 C 76 37 78 36 79 36 C 81 35 84 34 88 33 C 98 30 111 30 118 34 C 123 37 123 37 122 42 C 121 55 121 54 137 54 C 150 54 150 54 151 53 C 152 51 152 13 151 12 C 148 9 143 7 138 7 C 132 7 130 6 125 4 C 117 3 97 1 86 3 z" fill="black"/><!-- width=173 height=173 -->
<path id="gl9998" d="M 71 8 C 69 9 65 9 63 10 C 61 11 58 12 56 12 C 54 12 52 13 51 14 C 49 15 46 16 45 16 C 43 18 41 18 40 19 C 40 19 39 21 38 21 C 34 23 23 34 21 39 C 20 40 19 41 19 41 C 18 42 18 43 17 45 C 16 47 15 49 15 51 C 13 52 13 55 12 59 C 12 63 11 67 10 69 C 9 75 9 78 9 88 C 9 99 9 101 10 108 C 11 109 12 114 12 117 C 13 121 13 124 14 126 C 15 127 16 129 16 131 C 18 133 19 135 19 136 C 20 137 21 138 21 138 C 21 141 34 154 38 156 C 39 156 40 157 40 158 C 41 159 43 159 45 160 C 46 161 49 162 51 163 C 52 164 54 165 56 165 C 58 165 60 166 61 166 C 69 169 72 169 86 169 C 100 169 103 169 111 166 C 112 166 114 165 116 165 C 118 165 120 164 121 163 C 123 162 126 161 127 160 C 129 159 131 159 132 158 C 132 157 133 156 134 156 C 137 154 148 144 150 140 C 151 138 153 136 153 136 C 154 136 154 133 156 132 C 156 129 157 127 158 126 C 159 124 160 122 160 119 C 160 116 161 112 162 111 C 165 101 165 76 162 66 C 162 64 160 61 160 58 C 160 55 159 52 157 51 C 157 49 156 46 155 45 C 155 44 154 42 154 42 C 153 41 151 39 150 37 C 148 33 138 22 134 21 C 133 20 132 19 132 19 C 131 18 129 18 127 16 C 126 16 123 15 122 14 C 121 13 118 12 116 12 C 114 12 111 10 108 10 C 99 7 81 6 71 8 M 97 37 C 98 38 100 39 101 39 C 103 40 107 42 107 42 C 107 43 108 43 109 45 C 111 45 112 46 112 46 C 112 46 114 48 115 50 C 116 51 118 54 118 55 C 118 56 120 58 120 60 C 121 61 122 64 123 67 C 123 71 124 75 125 76 C 126 80 126 96 125 99 C 125 100 124 104 123 108 C 122 113 121 116 120 117 C 120 118 118 121 118 122 C 118 124 114 129 112 131 C 107 135 105 136 103 137 C 101 138 99 138 98 139 C 94 142 79 142 75 139 C 73 139 72 138 70 137 C 68 136 66 135 64 134 C 63 133 61 132 61 132 C 60 132 60 131 60 131 C 60 130 59 129 57 127 C 56 126 54 123 54 122 C 54 121 52 118 52 117 C 51 116 50 113 49 108 C 48 104 47 100 47 99 C 46 97 46 81 46 78 C 48 74 49 69 49 65 C 50 63 51 61 51 60 C 52 59 53 57 54 55 C 54 54 56 51 57 50 C 58 48 60 46 60 46 C 60 46 61 45 63 45 C 64 43 64 43 64 42 C 64 42 69 40 71 39 C 72 39 74 38 75 37 C 78 35 93 35 97 37 z" fill="black"/><!-- width=172 height=177 -->
<path id="gl9998" d="M 71 8 C 69 9 65 9 63 10 C 61 11 58 12 56 12 C 54 12 52 13 51 14 C 49 15 46 16 45 16 C 43 18 41 18 40 19 C 40 19 39 21 38 21 C 34 23 23 34 21 39 C 20 40 19 41 19 41 C 18 42 18 43 17 45 C 16 47 15 49 15 51 C 13 52 13 55 12 59 C 12 63 11 67 10 69 C 9 75 9 78 9 88 C 9 99 9 101 10 108 C 11 109 12 114 12 117 C 13 121 13 124 14 126 C 15 127 16 129 16 131 C 18 133 19 135 19 136 C 20 137 21 138 21 138 C 21 141 34 154 38 156 C 39 156 40 157 40 158 C 41 159 43 159 45 160 C 46 161 49 162 51 163 C 52 164 54 165 56 165 C 58 165 60 166 61 166 C 69 169 72 169 86 169 C 100 169 103 169 111 166 C 112 166 114 165 116 165 C 118 165 120 164 121 163 C 123 162 126 161 127 160 C 129 159 131 159 132 158 C 132 157 133 156 134 156 C 137 154 148 144 150 140 C 151 138 153 136 153 136 C 154 136 154 133 156 132 C 156 129 157 127 158 126 C 159 124 160 122 160 119 C 160 116 161 112 162 111 C 165 101 165 76 162 66 C 162 64 160 61 160 58 C 160 55 159 52 157 51 C 157 49 156 46 155 45 C 155 44 154 42 154 42 C 153 41 151 39 150 37 C 148 33 138 22 134 21 C 133 20 132 19 132 19 C 131 18 129 18 127 16 C 126 16 123 15 122 14 C 121 13 118 12 116 12 C 114 12 111 10 108 10 C 99 7 81 6 71 8 M 97 37 C 98 38 100 39 101 39 C 103 40 107 42 107 42 C 107 43 108 43 109 45 C 111 45 112 46 112 46 C 112 46 114 48 115 50 C 116 51 118 54 118 55 C 118 56 120 58 120 60 C 121 61 122 64 123 67 C 123 71 124 75 125 76 C 126 80 126 96 125 99 C 125 100 124 104 123 108 C 122 113 121 116 120 117 C 120 118 118 121 118 122 C 118 124 114 129 112 131 C 107 135 105 136 103 137 C 101 138 99 138 98 139 C 94 142 79 142 75 139 C 73 139 72 138 70 137 C 68 136 66 135 64 134 C 63 133 61 132 61 132 C 60 132 60 131 60 131 C 60 130 59 129 57 127 C 56 126 54 123 54 122 C 54 121 52 118 52 117 C 51 116 50 113 49 108 C 48 104 47 100 47 99 C 46 97 46 81 46 78 C 48 74 49 69 49 65 C 50 63 51 61 51 60 C 52 59 53 57 54 55 C 54 54 56 51 57 50 C 58 48 60 46 60 46 C 60 46 61 45 63 45 C 64 43 64 43 64 42 C 64 42 69 40 71 39 C 72 39 74 38 75 37 C 78 35 93 35 97 37 z" fill="black"/><!-- width=172 height=177 -->
<path id="gl10244" d="M 14 8 C 12 9 12 9 12 20 C 12 24 12 27 12 30 C 13 31 13 31 14 32 C 15 34 16 34 18 33 C 28 32 27 32 28 34 C 30 35 30 39 30 84 C 30 110 30 132 30 133 C 30 133 29 135 28 135 C 28 136 27 136 27 136 C 25 136 24 136 22 136 C 13 134 12 135 12 149 C 12 153 12 156 12 159 C 12 160 13 160 13 160 C 14 161 15 161 16 161 C 31 162 105 160 107 160 C 108 159 111 159 112 158 C 112 157 116 157 118 156 C 123 155 132 151 135 149 C 135 148 136 147 138 147 C 143 144 152 134 154 129 C 155 128 156 127 156 127 C 157 126 162 115 163 111 C 168 93 168 93 167 80 C 167 70 166 67 166 63 C 165 60 164 58 163 51 C 162 49 161 47 160 46 C 160 45 159 42 158 41 C 158 40 157 37 156 37 C 155 36 154 35 154 34 C 154 34 144 23 142 22 C 141 22 139 21 138 20 C 137 19 135 18 133 17 C 131 16 129 16 129 15 C 128 14 126 13 120 12 C 118 12 114 11 112 10 C 111 9 106 9 102 8 C 94 7 16 7 14 8 M 80 32 C 84 32 88 33 90 34 C 91 34 95 35 98 35 C 103 36 106 37 106 38 C 106 39 108 39 109 40 C 113 42 120 48 121 52 C 121 53 122 55 123 55 C 124 57 125 59 126 64 C 126 67 127 70 127 72 C 129 75 129 92 128 94 C 127 94 127 97 126 101 C 126 105 125 108 124 109 C 123 110 122 112 121 114 C 120 115 119 118 118 118 C 112 126 109 129 108 129 C 108 129 106 129 105 130 C 104 132 102 132 99 133 C 96 133 92 134 91 135 C 87 136 70 138 69 136 C 66 135 65 133 66 124 C 66 113 66 55 66 45 C 65 34 66 31 72 31 C 73 31 76 32 80 32 z" fill="black"/><!-- width=175 height=168 -->
<path id="gl10242" d="M 12 10 C 10 10 9 12 10 18 C 10 21 10 25 10 27 C 10 31 10 32 12 33 C 14 36 15 36 21 34 C 22 34 24 33 25 33 C 25 33 26 34 27 34 C 27 35 27 36 28 36 C 28 52 28 69 28 86 C 28 103 28 120 28 136 C 27 136 27 137 27 138 C 26 138 25 138 25 139 C 24 138 22 138 19 138 C 12 136 10 138 10 145 C 11 148 10 152 10 155 C 9 163 6 163 46 163 C 78 163 79 163 81 162 C 82 161 82 160 82 159 C 82 159 81 154 81 149 C 81 146 81 142 81 139 C 81 139 80 138 79 138 C 79 138 78 137 78 136 C 76 136 74 137 73 138 C 64 139 63 137 64 124 C 64 118 64 63 63 40 C 63 34 66 33 73 35 C 75 35 76 36 78 36 C 78 36 79 34 79 34 C 80 33 81 33 81 32 C 81 28 81 25 81 21 C 81 12 81 11 81 10 C 79 9 14 9 12 10 z" fill="black"/><!-- width=92 height=172 -->
<path id="gl12804" d="M 14 13 C 13 13 13 13 12 14 C 13 17 13 21 13 24 C 13 38 14 39 23 37 C 28 36 28 37 30 39 C 31 41 31 136 30 138 C 29 140 28 141 22 139 C 15 138 15 139 14 154 C 14 162 14 164 15 165 C 16 166 77 166 80 165 C 81 165 81 164 82 163 C 82 162 82 160 82 157 C 81 142 81 142 78 140 C 76 139 76 139 72 140 C 66 141 65 141 64 138 C 63 135 62 78 63 73 C 64 68 67 67 70 72 C 70 73 72 75 72 75 C 73 75 74 77 75 78 C 75 80 76 81 77 82 C 78 82 78 83 79 85 C 80 87 81 88 81 88 C 82 88 83 90 84 91 C 85 93 85 94 86 94 C 86 94 87 96 88 98 C 89 100 90 102 91 102 C 91 102 92 103 93 105 C 93 105 94 108 96 109 C 97 111 100 115 102 118 C 103 119 105 121 105 122 C 106 123 108 124 108 124 C 108 125 108 126 109 127 C 112 130 115 134 117 138 C 118 139 119 141 120 141 C 120 141 121 142 121 144 C 122 145 123 147 124 147 C 125 148 127 151 131 157 C 135 162 136 165 138 165 C 138 165 145 166 153 166 C 158 166 163 166 168 166 C 168 166 169 165 169 165 C 170 163 170 163 170 162 C 169 160 169 42 169 40 C 171 37 171 37 177 37 C 182 39 183 38 184 34 C 186 32 186 13 184 12 C 183 12 177 12 152 12 C 115 12 117 11 118 18 C 118 21 118 25 118 28 C 119 37 120 38 127 37 C 134 37 134 37 135 39 C 136 40 136 40 136 69 C 137 100 136 102 134 103 C 133 104 133 103 132 103 C 132 102 130 100 129 98 C 127 96 126 94 125 93 C 124 91 123 90 123 90 C 122 90 121 88 121 87 C 120 85 119 84 118 84 C 118 84 117 82 116 81 C 115 79 114 78 113 76 C 112 75 111 74 111 73 C 110 72 109 70 108 70 C 108 69 107 68 107 67 C 107 67 106 66 105 65 C 104 64 102 61 102 60 C 100 58 99 57 99 57 C 98 57 97 55 97 54 C 96 52 95 51 94 51 C 94 51 93 49 93 48 C 92 47 91 45 90 44 C 88 42 86 40 83 35 C 82 34 81 32 80 31 C 79 30 78 28 77 27 C 76 26 75 24 73 22 C 72 20 70 18 70 16 C 69 15 68 14 67 13 C 67 13 67 12 66 12 C 58 12 49 12 41 12 C 17 12 16 12 14 13 z" fill="black"/><!-- width=196 height=173 -->
<path id="gl7438" d="M 13 39 C 13 40 13 43 12 55 C 12 63 12 73 12 76 C 11 87 10 86 25 85 C 41 85 40 86 40 74 C 40 63 41 62 54 62 C 58 62 61 62 64 62 C 64 63 64 63 65 64 C 66 66 66 67 66 70 C 66 73 66 94 66 119 C 66 151 66 164 65 165 C 64 166 63 167 57 166 C 46 164 46 164 46 179 C 45 189 46 190 46 190 C 48 192 118 192 121 190 C 121 189 121 189 121 180 C 121 165 120 164 111 166 C 106 166 106 166 105 166 C 102 164 102 165 102 127 C 102 107 102 86 102 80 C 100 62 101 61 114 62 C 127 62 129 64 128 73 C 127 79 129 84 130 85 C 132 86 153 87 156 85 C 156 85 157 85 157 84 C 157 82 157 79 157 77 C 157 73 156 63 156 55 C 156 46 156 39 155 39 C 154 37 15 38 13 39 z" fill="black"/><!-- width=168 height=199 -->
<path id="gl7439" d="M 15 10 C 14 11 13 12 13 13 C 13 13 14 18 14 23 C 15 36 15 37 24 35 C 30 34 30 34 31 35 C 31 36 31 36 32 36 C 32 53 32 69 32 85 C 32 112 32 135 31 136 C 31 138 30 138 24 138 C 16 136 16 137 15 151 C 15 156 15 161 15 161 C 16 163 19 163 31 163 C 39 163 60 162 89 163 C 123 163 135 163 136 162 C 136 162 137 159 137 148 C 137 136 138 133 139 126 C 141 116 141 115 137 112 C 135 112 135 112 127 112 C 124 112 119 112 118 112 C 117 112 114 112 113 113 C 109 114 109 115 109 126 C 109 133 108 135 108 136 C 107 137 107 138 106 138 C 100 138 95 138 89 139 C 79 139 71 139 70 138 C 68 137 67 135 67 118 C 67 95 67 94 80 96 C 84 97 91 97 97 98 C 110 99 110 99 109 84 C 109 70 111 71 93 72 C 70 73 70 73 69 71 C 67 70 67 70 67 54 C 67 33 68 33 79 34 C 83 34 90 34 94 34 C 108 33 109 34 109 45 C 109 57 108 57 127 57 C 139 58 140 57 138 43 C 137 40 136 35 137 25 C 137 13 136 11 136 10 C 135 9 18 9 15 10 z" fill="black"/><!-- width=149 height=173 -->
<path id="gl12804" d="M 14 13 C 13 13 13 13 12 14 C 13 17 13 21 13 24 C 13 38 14 39 23 37 C 28 36 28 37 30 39 C 31 41 31 136 30 138 C 29 140 28 141 22 139 C 15 138 15 139 14 154 C 14 162 14 164 15 165 C 16 166 77 166 80 165 C 81 165 81 164 82 163 C 82 162 82 160 82 157 C 81 142 81 142 78 140 C 76 139 76 139 72 140 C 66 141 65 141 64 138 C 63 135 62 78 63 73 C 64 68 67 67 70 72 C 70 73 72 75 72 75 C 73 75 74 77 75 78 C 75 80 76 81 77 82 C 78 82 78 83 79 85 C 80 87 81 88 81 88 C 82 88 83 90 84 91 C 85 93 85 94 86 94 C 86 94 87 96 88 98 C 89 100 90 102 91 102 C 91 102 92 103 93 105 C 93 105 94 108 96 109 C 97 111 100 115 102 118 C 103 119 105 121 105 122 C 106 123 108 124 108 124 C 108 125 108 126 109 127 C 112 130 115 134 117 138 C 118 139 119 141 120 141 C 120 141 121 142 121 144 C 122 145 123 147 124 147 C 125 148 127 151 131 157 C 135 162 136 165 138 165 C 138 165 145 166 153 166 C 158 166 163 166 168 166 C 168 166 169 165 169 165 C 170 163 170 163 170 162 C 169 160 169 42 169 40 C 171 37 171 37 177 37 C 182 39 183 38 184 34 C 186 32 186 13 184 12 C 183 12 177 12 152 12 C 115 12 117 11 118 18 C 118 21 118 25 118 28 C 119 37 120 38 127 37 C 134 37 134 37 135 39 C 136 40 136 40 136 69 C 137 100 136 102 134 103 C 133 104 133 103 132 103 C 132 102 130 100 129 98 C 127 96 126 94 125 93 C 124 91 123 90 123 90 C 122 90 121 88 121 87 C 120 85 119 84 118 84 C 118 84 117 82 116 81 C 115 79 114 78 113 76 C 112 75 111 74 111 73 C 110 72 109 70 108 70 C 108 69 107 68 107 67 C 107 67 106 66 105 65 C 104 64 102 61 102 60 C 100 58 99 57 99 57 C 98 57 97 55 97 54 C 96 52 95 51 94 51 C 94 51 93 49 93 48 C 92 47 91 45 90 44 C 88 42 86 40 83 35 C 82 34 81 32 80 31 C 79 30 78 28 77 27 C 76 26 75 24 73 22 C 72 20 70 18 70 16 C 69 15 68 14 67 13 C 67 13 67 12 66 12 C 58 12 49 12 41 12 C 17 12 16 12 14 13 z" fill="black"/><!-- width=196 height=173 -->
<path id="gl7438" d="M 13 39 C 13 40 13 43 12 55 C 12 63 12 73 12 76 C 11 87 10 86 25 85 C 41 85 40 86 40 74 C 40 63 41 62 54 62 C 58 62 61 62 64 62 C 64 63 64 63 65 64 C 66 66 66 67 66 70 C 66 73 66 94 66 119 C 66 151 66 164 65 165 C 64 166 63 167 57 166 C 46 164 46 164 46 179 C 45 189 46 190 46 190 C 48 192 118 192 121 190 C 121 189 121 189 121 180 C 121 165 120 164 111 166 C 106 166 106 166 105 166 C 102 164 102 165 102 127 C 102 107 102 86 102 80 C 100 62 101 61 114 62 C 127 62 129 64 128 73 C 127 79 129 84 130 85 C 132 86 153 87 156 85 C 156 85 157 85 157 84 C 157 82 157 79 157 77 C 157 73 156 63 156 55 C 156 46 156 39 155 39 C 154 37 15 38 13 39 z" fill="black"/><!-- width=168 height=199 -->
<path id="gl10242" d="M 12 10 C 10 10 9 12 10 18 C 10 21 10 25 10 27 C 10 31 10 32 12 33 C 14 36 15 36 21 34 C 22 34 24 33 25 33 C 25 33 26 34 27 34 C 27 35 27 36 28 36 C 28 52 28 69 28 86 C 28 103 28 120 28 136 C 27 136 27 137 27 138 C 26 138 25 138 25 139 C 24 138 22 138 19 138 C 12 136 10 138 10 145 C 11 148 10 152 10 155 C 9 163 6 163 46 163 C 78 163 79 163 81 162 C 82 161 82 160 82 159 C 82 159 81 154 81 149 C 81 146 81 142 81 139 C 81 139 80 138 79 138 C 79 138 78 137 78 136 C 76 136 74 137 73 138 C 64 139 63 137 64 124 C 64 118 64 63 63 40 C 63 34 66 33 73 35 C 75 35 76 36 78 36 C 78 36 79 34 79 34 C 80 33 81 33 81 32 C 81 28 81 25 81 21 C 81 12 81 11 81 10 C 79 9 14 9 12 10 z" fill="black"/><!-- width=92 height=172 -->
<path id="gl9998" d="M 71 8 C 69 9 65 9 63 10 C 61 11 58 12 56 12 C 54 12 52 13 51 14 C 49 15 46 16 45 16 C 43 18 41 18 40 19 C 40 19 39 21 38 21 C 34 23 23 34 21 39 C 20 40 19 41 19 41 C 18 42 18 43 17 45 C 16 47 15 49 15 51 C 13 52 13 55 12 59 C 12 63 11 67 10 69 C 9 75 9 78 9 88 C 9 99 9 101 10 108 C 11 109 12 114 12 117 C 13 121 13 124 14 126 C 15 127 16 129 16 131 C 18 133 19 135 19 136 C 20 137 21 138 21 138 C 21 141 34 154 38 156 C 39 156 40 157 40 158 C 41 159 43 159 45 160 C 46 161 49 162 51 163 C 52 164 54 165 56 165 C 58 165 60 166 61 166 C 69 169 72 169 86 169 C 100 169 103 169 111 166 C 112 166 114 165 116 165 C 118 165 120 164 121 163 C 123 162 126 161 127 160 C 129 159 131 159 132 158 C 132 157 133 156 134 156 C 137 154 148 144 150 140 C 151 138 153 136 153 136 C 154 136 154 133 156 132 C 156 129 157 127 158 126 C 159 124 160 122 160 119 C 160 116 161 112 162 111 C 165 101 165 76 162 66 C 162 64 160 61 160 58 C 160 55 159 52 157 51 C 157 49 156 46 155 45 C 155 44 154 42 154 42 C 153 41 151 39 150 37 C 148 33 138 22 134 21 C 133 20 132 19 132 19 C 131 18 129 18 127 16 C 126 16 123 15 122 14 C 121 13 118 12 116 12 C 114 12 111 10 108 10 C 99 7 81 6 71 8 M 97 37 C 98 38 100 39 101 39 C 103 40 107 42 107 42 C 107 43 108 43 109 45 C 111 45 112 46 112 46 C 112 46 114 48 115 50 C 116 51 118 54 118 55 C 118 56 120 58 120 60 C 121 61 122 64 123 67 C 123 71 124 75 125 76 C 126 80 126 96 125 99 C 125 100 124 104 123 108 C 122 113 121 116 120 117 C 120 118 118 121 118 122 C 118 124 114 129 112 131 C 107 135 105 136 103 137 C 101 138 99 138 98 139 C 94 142 79 142 75 139 C 73 139 72 138 70 137 C 68 136 66 135 64 134 C 63 133 61 132 61 132 C 60 132 60 131 60 131 C 60 130 59 129 57 127 C 56 126 54 123 54 122 C 54 121 52 118 52 117 C 51 116 50 113 49 108 C 48 104 47 100 47 99 C 46 97 46 81 46 78 C 48 74 49 69 49 65 C 50 63 51 61 51 60 C 52 59 53 57 54 55 C 54 54 56 51 57 50 C 58 48 60 46 60 46 C 60 46 61 45 63 45 C 64 43 64 43 64 42 C 64 42 69 40 71 39 C 72 39 74 38 75 37 C 78 35 93 35 97 37 z" fill="black"/><!-- width=172 height=177 -->
<path id="gl12804" d="M 14 13 C 13 13 13 13 12 14 C 13 17 13 21 13 24 C 13 38 14 39 23 37 C 28 36 28 37 30 39 C 31 41 31 136 30 138 C 29 140 28 141 22 139 C 15 138 15 139 14 154 C 14 162 14 164 15 165 C 16 166 77 166 80 165 C 81 165 81 164 82 163 C 82 162 82 160 82 157 C 81 142 81 142 78 140 C 76 139 76 139 72 140 C 66 141 65 141 64 138 C 63 135 62 78 63 73 C 64 68 67 67 70 72 C 70 73 72 75 72 75 C 73 75 74 77 75 78 C 75 80 76 81 77 82 C 78 82 78 83 79 85 C 80 87 81 88 81 88 C 82 88 83 90 84 91 C 85 93 85 94 86 94 C 86 94 87 96 88 98 C 89 100 90 102 91 102 C 91 102 92 103 93 105 C 93 105 94 108 96 109 C 97 111 100 115 102 118 C 103 119 105 121 105 122 C 106 123 108 124 108 124 C 108 125 108 126 109 127 C 112 130 115 134 117 138 C 118 139 119 141 120 141 C 120 141 121 142 121 144 C 122 145 123 147 124 147 C 125 148 127 151 131 157 C 135 162 136 165 138 165 C 138 165 145 166 153 166 C 158 166 163 166 168 166 C 168 166 169 165 169 165 C 170 163 170 163 170 162 C 169 160 169 42 169 40 C 171 37 171 37 177 37 C 182 39 183 38 184 34 C 186 32 186 13 184 12 C 183 12 177 12 152 12 C 115 12 117 11 118 18 C 118 21 118 25 118 28 C 119 37 120 38 127 37 C 134 37 134 37 135 39 C 136 40 136 40 136 69 C 137 100 136 102 134 103 C 133 104 133 103 132 103 C 132 102 130 100 129 98 C 127 96 126 94 125 93 C 124 91 123 90 123 90 C 122 90 121 88 121 87 C 120 85 119 84 118 84 C 118 84 117 82 116 81 C 115 79 114 78 113 76 C 112 75 111 74 111 73 C 110 72 109 70 108 70 C 108 69 107 68 107 67 C 107 67 106 66 105 65 C 104 64 102 61 102 60 C 100 58 99 57 99 57 C 98 57 97 55 97 54 C 96 52 95 51 94 51 C 94 51 93 49 93 48 C 92 47 91 45 90 44 C 88 42 86 40 83 35 C 82 34 81 32 80 31 C 79 30 78 28 77 27 C 76 26 75 24 73 22 C 72 20 70 18 70 16 C 69 15 68 14 67 13 C 67 13 67 12 66 12 C 58 12 49 12 41 12 C 17 12 16 12 14 13 z" fill="black"/><!-- width=196 height=173 -->
<path id="gl7440" d="M 66 5 C 64 6 60 6 59 7 C 57 7 54 8 52 9 C 51 9 49 10 48 10 C 46 10 44 11 43 12 C 42 12 40 13 39 14 C 37 15 34 16 33 18 C 31 19 30 21 30 21 C 29 21 28 21 28 22 C 28 22 27 24 26 24 C 25 24 24 25 24 27 C 23 28 22 30 21 31 C 20 31 19 34 18 36 C 17 38 16 42 15 43 C 14 48 13 58 14 65 C 16 76 24 88 32 91 C 34 91 36 92 37 93 C 38 94 40 95 44 96 C 47 96 50 97 51 98 C 52 99 54 99 64 100 C 67 101 70 102 73 103 C 76 103 79 105 81 105 C 83 105 85 106 86 107 C 87 108 88 108 89 109 C 92 109 95 113 96 116 C 97 121 96 129 93 132 C 93 132 91 133 91 135 C 90 135 89 136 88 136 C 88 136 87 136 87 136 C 87 138 85 139 81 140 C 79 141 76 141 75 142 C 73 144 68 144 63 142 C 62 141 59 141 57 141 C 46 138 46 138 45 127 C 45 120 45 119 43 118 C 43 117 42 117 42 116 C 37 116 33 115 28 115 C 12 115 13 114 13 124 C 14 127 14 136 14 144 C 14 153 14 157 15 158 C 16 160 21 162 27 163 C 31 163 34 163 43 166 C 52 167 66 168 71 167 C 73 167 77 166 79 166 C 82 166 85 166 86 166 C 87 165 89 165 90 164 C 97 163 102 162 104 160 C 105 160 108 159 109 158 C 110 158 112 157 114 155 C 115 154 117 153 117 153 C 118 153 127 143 128 141 C 128 139 129 137 130 135 C 132 131 133 130 133 123 C 134 112 133 100 132 98 C 130 97 129 95 129 94 C 127 90 120 82 117 81 C 116 80 114 79 114 79 C 113 78 112 77 111 77 C 109 77 107 76 105 75 C 103 74 99 73 96 72 C 93 72 89 70 87 70 C 85 69 80 68 77 67 C 73 67 70 66 69 66 C 67 65 65 64 63 63 C 55 61 50 55 51 46 C 52 40 57 34 61 33 C 63 32 66 31 67 30 C 72 29 78 29 81 30 C 82 31 85 32 88 32 C 95 33 96 33 96 43 C 96 49 96 51 96 52 C 98 53 123 53 124 52 C 126 50 126 11 124 10 C 123 9 111 7 105 7 C 103 7 102 7 100 7 C 99 6 96 6 93 6 C 78 5 70 5 66 5 z" fill="black"/><!-- width=145 height=175 -->
</defs>
<use xlink:href="#gl10243" x="0" y="31"/>
<use xlink:href="#gl9998" x="193" y="26"/>
<use xlink:href="#gl9998" x="380" y="26"/>
<use xlink:href="#gl10244" x="569" y="30"/>
<use xlink:href="#gl10242" x="859" y="29"/>
<use xlink:href="#gl12804" x="957" y="26"/>
<use xlink:href="#gl7438" x="1157" y="0"/>
<use xlink:href="#gl7439" x="1325" y="28"/>
<use xlink:href="#gl12804" x="1480" y="26"/>
<use xlink:href="#gl7438" x="1680" y="0"/>
<use xlink:href="#gl10242" x="1852" y="28"/>
<use xlink:href="#gl9998" x="1959" y="26"/>
<use xlink:href="#gl12804" x="2142" y="26"/>
<use xlink:href="#gl7440" x="2346" y="28"/>
</svg>
