<?xml version='1.0' encoding='utf-8'?>
<svg xmlns="http://www.w3.org/2000/svg" xmlns:xlink="http://www.w3.org/1999/xlink" width="479px" height="15px" viewBox="0 0 4793 155" version="1.1">
<defs>
<path id="gl4352" d="M 17 7 C 15 7 15 7 15 10 C 15 15 17 17 22 17 C 28 18 28 18 28 21 C 29 23 28 36 27 46 C 27 49 26 54 26 57 C 26 60 25 63 25 64 C 25 65 24 68 24 70 C 24 72 24 76 24 78 C 24 81 23 88 23 94 C 22 112 21 115 15 115 C 10 115 9 118 9 123 C 9 127 8 127 28 127 C 49 127 49 127 49 121 C 49 116 48 115 41 115 C 38 115 36 115 36 114 C 34 114 36 101 36 97 C 37 96 37 91 37 79 C 38 73 35 73 67 73 C 99 73 97 73 96 79 C 96 81 96 86 95 91 C 94 113 93 115 87 115 C 82 115 81 117 81 122 C 81 127 80 127 100 127 C 121 127 120 127 120 121 C 120 116 120 115 113 115 C 111 115 108 115 108 114 C 107 114 107 103 108 99 C 109 91 109 91 110 75 C 111 66 111 57 112 55 C 113 48 114 41 114 31 C 115 19 115 18 119 18 C 124 17 127 15 129 12 C 130 6 128 6 106 6 C 87 6 87 6 87 10 C 87 15 90 17 96 17 C 101 17 101 17 100 39 C 99 56 98 61 97 62 C 96 63 43 63 41 62 C 39 61 39 58 40 54 C 40 51 40 46 41 42 C 42 39 43 33 43 28 C 43 18 43 17 48 17 C 51 17 52 17 54 15 C 57 12 58 9 55 7 C 53 5 20 5 17 7 z" fill="black"/><!-- width=136 height=133 -->
<path id="gl1794" d="M 40 7 C 37 7 29 11 26 14 C 24 16 22 18 19 21 C 18 22 16 24 15 26 C 15 28 13 30 13 31 C 12 32 12 36 11 40 C 10 44 9 48 9 49 C 7 52 7 62 9 67 C 11 76 12 82 14 84 C 15 84 15 85 15 86 C 15 87 21 92 24 93 C 26 94 28 95 28 96 C 28 97 36 98 44 97 C 46 97 49 97 52 97 C 54 96 55 96 58 94 C 63 91 67 89 72 83 C 73 81 75 79 75 79 C 75 79 75 77 76 76 C 78 74 78 72 79 69 C 79 66 79 64 80 63 C 81 62 81 60 81 59 C 81 58 81 55 82 54 C 83 50 83 42 81 35 C 80 32 79 28 79 26 C 78 22 78 22 75 19 C 73 15 69 12 66 10 C 65 10 63 9 62 9 C 60 6 49 6 40 7 M 57 20 C 61 22 64 24 67 30 C 67 31 68 33 69 34 C 69 39 69 43 69 47 C 69 52 69 56 69 60 C 68 61 67 63 67 64 C 66 67 64 70 64 71 C 64 73 58 81 56 82 C 54 83 45 86 42 86 C 35 87 27 81 23 72 C 22 70 21 69 21 67 C 21 63 21 60 21 57 C 21 45 22 43 24 39 C 24 37 25 34 25 33 C 27 30 33 22 34 22 C 45 18 50 17 57 20 z" fill="black"/><!-- width=91 height=105 -->
<path id="gl4353" d="M 10 5 C 7 6 7 6 6 10 C 6 15 7 16 13 16 C 16 17 19 17 19 18 C 20 19 21 25 20 28 C 19 30 19 34 18 37 C 18 41 18 45 18 46 C 16 51 16 72 18 75 C 18 76 19 78 19 79 C 19 79 19 81 19 81 C 19 81 20 82 21 84 C 22 90 28 95 34 97 C 37 97 46 97 48 97 C 51 96 58 91 58 90 C 58 90 60 88 61 87 C 63 85 64 82 69 75 C 70 72 71 70 71 70 C 72 69 74 73 75 79 C 75 82 75 85 76 85 C 77 87 78 88 78 90 C 79 91 81 93 83 94 C 84 95 85 96 87 97 C 89 97 91 97 94 97 C 100 97 101 97 102 96 C 103 95 105 94 107 93 C 111 91 115 87 117 83 C 118 82 119 81 120 80 C 121 79 121 78 122 76 C 123 74 124 72 124 70 C 126 68 127 66 127 62 C 127 61 129 58 129 55 C 130 52 131 48 132 43 C 132 37 133 32 133 30 C 134 28 134 24 134 22 C 134 19 135 17 135 16 C 136 15 136 8 136 7 C 135 5 132 5 122 5 C 109 5 108 5 107 10 C 106 15 108 17 115 16 C 117 16 120 16 120 16 C 121 16 122 21 121 24 C 121 26 121 30 121 33 C 120 36 120 40 119 42 C 118 44 117 48 117 51 C 117 54 115 58 115 60 C 114 61 113 64 112 67 C 111 69 110 72 109 73 C 108 74 108 75 108 75 C 108 76 102 82 99 83 C 95 85 95 85 93 84 C 88 82 88 82 85 78 C 85 77 84 76 84 75 C 84 68 84 62 84 55 C 84 36 84 22 86 19 C 87 18 87 15 87 12 C 87 10 88 9 88 7 C 87 7 87 6 85 6 C 84 5 82 5 79 5 C 73 5 73 5 72 16 C 72 21 71 27 70 30 C 70 33 69 39 69 43 C 68 48 67 52 66 54 C 66 55 65 58 64 60 C 64 64 60 72 57 75 C 56 76 55 78 54 79 C 54 81 51 82 46 84 C 43 85 39 84 36 82 C 33 79 31 73 31 67 C 31 57 31 38 33 34 C 33 32 33 28 33 27 C 33 24 34 21 34 20 C 35 18 36 7 36 7 C 34 5 32 5 22 5 C 16 5 10 5 10 5 z" fill="black"/><!-- width=144 height=104 -->
<path id="gl1793" d="M 38 5 C 31 7 30 9 30 19 C 31 29 30 30 25 29 C 18 28 15 30 15 34 C 15 39 17 40 23 39 C 31 39 31 39 30 49 C 30 54 30 58 30 59 C 30 60 29 64 29 67 C 28 70 28 75 28 77 C 27 78 27 81 27 81 C 27 82 27 84 27 86 C 25 88 25 91 25 97 C 25 106 25 106 27 108 C 28 109 29 112 30 113 C 30 114 31 115 32 117 C 33 117 35 118 36 119 C 37 120 39 120 46 120 C 58 120 59 120 64 117 C 68 113 69 111 67 105 C 66 102 66 102 64 103 C 63 105 62 105 61 105 C 61 105 58 106 55 107 C 48 109 44 109 40 105 C 39 104 39 96 40 86 C 40 82 40 79 40 78 C 40 77 40 75 40 72 C 42 66 43 58 43 51 C 43 44 44 40 45 39 C 46 39 50 39 56 40 C 67 41 68 41 70 36 C 72 33 72 31 70 30 C 67 28 68 28 51 29 C 43 30 42 28 43 24 C 43 23 44 19 45 15 C 45 12 45 9 45 9 C 46 8 45 6 43 5 C 42 4 42 4 38 5 z" fill="black"/><!-- width=80 height=127 -->
<path id="gl3338" d="M 19 2 C 18 4 18 10 19 12 C 21 13 21 13 27 13 C 28 13 31 13 33 13 C 33 15 33 15 33 16 C 34 19 34 21 33 27 C 32 37 32 39 31 49 C 31 53 30 57 30 57 C 30 57 30 61 30 66 C 28 87 28 98 27 99 C 27 100 27 102 27 103 C 27 104 26 106 25 108 C 25 110 24 116 24 121 C 24 126 23 131 22 132 C 22 134 22 135 23 136 C 25 139 37 138 38 135 C 38 134 39 130 39 127 C 39 117 40 111 42 107 C 42 105 43 101 43 98 C 45 95 45 92 46 91 C 46 91 48 89 48 87 C 48 85 49 82 51 81 C 51 80 52 78 53 76 C 54 75 55 73 55 73 C 56 72 57 70 58 69 C 60 65 66 61 70 60 C 72 58 73 58 74 57 C 75 57 79 60 81 61 C 82 63 82 68 82 76 C 81 88 79 101 78 102 C 78 103 78 108 77 113 C 76 127 75 129 74 132 C 72 136 75 137 89 137 C 102 137 102 137 102 132 C 103 127 102 125 96 125 C 91 126 91 126 91 115 C 91 109 92 104 92 102 C 95 84 96 78 96 68 C 96 60 96 58 94 57 C 94 57 93 54 92 52 C 91 51 90 49 90 49 C 90 49 88 48 87 47 C 85 45 85 45 79 45 C 74 45 72 45 71 46 C 70 46 67 48 66 49 C 63 51 55 58 54 61 C 53 62 52 64 51 64 C 51 65 49 67 48 69 C 47 72 46 73 45 73 C 43 73 42 70 43 60 C 43 57 44 51 44 48 C 45 44 45 40 45 39 C 46 39 46 36 46 33 C 46 31 46 28 47 27 C 47 27 48 23 48 19 C 48 16 49 11 49 8 C 49 1 50 1 34 1 C 22 1 21 1 19 2 z" fill="black"/><!-- width=113 height=151 -->
<path id="gl1538" d="M 45 9 C 43 9 42 10 40 10 C 39 11 37 12 36 13 C 34 13 32 15 31 16 C 31 16 30 18 28 18 C 28 19 27 20 26 21 C 25 22 24 24 24 25 C 21 28 17 36 16 39 C 16 40 16 42 15 43 C 15 44 15 46 15 47 C 15 48 14 51 13 52 C 11 58 14 82 18 87 C 18 87 20 89 21 91 C 22 93 24 94 27 96 C 29 97 32 98 33 99 C 36 100 57 100 61 98 C 63 97 66 96 68 96 C 72 94 73 93 73 87 C 75 81 73 79 67 82 C 66 82 66 82 66 82 C 66 84 62 85 58 85 C 57 86 55 87 54 87 C 52 88 43 88 42 88 C 41 87 39 87 37 86 C 28 83 23 71 27 64 C 28 62 30 62 36 62 C 43 62 47 61 52 59 C 54 58 56 57 57 57 C 63 55 73 46 76 40 C 79 34 79 34 79 28 C 79 23 79 22 78 21 C 77 19 75 18 75 16 C 73 15 72 13 70 13 C 69 12 67 11 66 10 C 64 9 51 8 45 9 M 60 21 C 65 24 66 24 66 30 C 66 33 65 35 64 37 C 63 40 56 45 53 46 C 51 47 49 49 47 49 C 45 50 42 51 39 52 C 37 52 33 54 31 54 C 30 55 28 55 28 55 C 27 55 25 52 25 49 C 26 46 31 33 33 31 C 34 31 35 30 36 28 C 39 21 54 17 60 21 z" fill="black"/><!-- width=86 height=107 -->
<path id="gl3328" d="M 17 19 C 16 20 15 21 15 24 C 15 30 16 30 22 30 C 28 30 30 32 31 39 C 31 42 33 45 33 46 C 34 48 34 49 36 60 C 36 62 37 65 38 66 C 39 67 39 70 40 72 C 40 74 40 78 41 79 C 41 81 42 84 43 85 C 43 87 44 90 45 94 C 46 97 46 101 48 102 C 48 104 49 108 50 112 C 51 116 52 120 52 121 C 53 123 54 127 54 130 C 55 139 55 139 65 139 C 67 139 70 140 72 140 C 73 139 73 139 73 138 C 74 138 75 136 75 136 C 75 135 76 134 76 133 C 78 132 79 129 79 127 C 80 124 81 122 82 121 C 82 120 83 118 84 115 C 84 114 85 111 86 109 C 87 108 88 106 88 104 C 89 102 90 100 91 99 C 91 97 93 94 93 93 C 94 91 95 88 96 87 C 96 85 97 83 98 81 C 99 78 100 75 101 75 C 102 75 103 75 103 75 C 106 74 106 76 108 87 C 109 90 110 95 111 97 C 111 100 112 104 112 106 C 112 108 114 113 115 116 C 116 120 117 124 117 125 C 117 131 118 136 120 138 C 121 139 122 139 128 139 C 133 140 138 139 138 138 C 138 138 138 136 139 135 C 140 133 141 131 141 130 C 142 126 143 123 144 121 C 145 121 145 118 146 115 C 147 112 148 109 149 108 C 150 107 151 105 151 103 C 151 102 153 99 153 98 C 154 96 155 93 156 91 C 156 88 157 85 159 84 C 159 84 160 81 161 78 C 162 76 163 73 163 72 C 164 71 165 69 165 67 C 166 63 167 61 168 59 C 169 58 170 56 171 53 C 171 51 172 48 173 46 C 174 45 175 43 175 42 C 175 38 177 36 179 33 C 181 31 182 30 184 30 C 188 30 189 30 190 24 C 191 23 192 22 192 21 C 192 20 191 20 190 19 C 190 19 189 18 189 18 C 183 18 178 18 172 18 C 151 18 151 18 151 25 C 150 28 153 30 157 30 C 159 30 160 30 162 31 C 162 31 162 33 162 34 C 162 39 159 46 157 49 C 157 49 156 52 155 54 C 154 57 154 59 153 60 C 153 61 151 64 151 67 C 150 70 149 73 148 74 C 147 76 145 79 145 82 C 145 82 145 85 144 87 C 143 88 141 93 141 95 C 140 98 139 102 138 103 C 138 105 136 108 136 111 C 135 114 134 115 133 116 C 132 117 131 118 130 119 C 130 120 129 120 129 121 C 129 120 129 118 129 117 C 128 115 127 112 127 109 C 126 106 125 101 124 98 C 123 94 122 90 122 87 C 121 84 121 81 120 81 C 120 79 118 76 117 66 C 116 63 115 60 115 58 C 114 56 113 52 112 49 C 112 46 111 42 111 39 C 108 33 109 31 113 30 C 117 30 118 28 120 25 C 121 21 121 21 119 19 C 117 18 116 18 100 18 C 80 18 79 18 78 24 C 78 29 80 30 87 30 C 88 30 90 30 91 30 C 91 31 92 32 93 33 C 99 46 99 51 96 57 C 94 60 93 63 93 64 C 93 66 91 68 91 69 C 90 70 89 72 88 74 C 88 76 87 79 86 80 C 85 81 84 84 84 86 C 83 88 82 90 81 91 C 81 93 79 95 79 97 C 78 99 77 102 76 103 C 76 105 75 107 74 109 C 73 113 67 123 67 123 C 66 123 65 118 64 114 C 64 112 63 107 62 104 C 61 100 60 96 60 93 C 60 91 58 86 58 83 C 57 81 55 76 55 72 C 55 69 54 65 53 63 C 52 61 51 57 51 54 C 50 50 49 46 48 45 C 46 40 45 32 47 31 C 48 30 49 30 51 30 C 54 30 55 28 56 24 C 57 18 57 18 36 18 C 19 18 19 18 17 19 z" fill="black"/><!-- width=201 height=146 -->
<path id="gl1538" d="M 45 9 C 43 9 42 10 40 10 C 39 11 37 12 36 13 C 34 13 32 15 31 16 C 31 16 30 18 28 18 C 28 19 27 20 26 21 C 25 22 24 24 24 25 C 21 28 17 36 16 39 C 16 40 16 42 15 43 C 15 44 15 46 15 47 C 15 48 14 51 13 52 C 11 58 14 82 18 87 C 18 87 20 89 21 91 C 22 93 24 94 27 96 C 29 97 32 98 33 99 C 36 100 57 100 61 98 C 63 97 66 96 68 96 C 72 94 73 93 73 87 C 75 81 73 79 67 82 C 66 82 66 82 66 82 C 66 84 62 85 58 85 C 57 86 55 87 54 87 C 52 88 43 88 42 88 C 41 87 39 87 37 86 C 28 83 23 71 27 64 C 28 62 30 62 36 62 C 43 62 47 61 52 59 C 54 58 56 57 57 57 C 63 55 73 46 76 40 C 79 34 79 34 79 28 C 79 23 79 22 78 21 C 77 19 75 18 75 16 C 73 15 72 13 70 13 C 69 12 67 11 66 10 C 64 9 51 8 45 9 M 60 21 C 65 24 66 24 66 30 C 66 33 65 35 64 37 C 63 40 56 45 53 46 C 51 47 49 49 47 49 C 45 50 42 51 39 52 C 37 52 33 54 31 54 C 30 55 28 55 28 55 C 27 55 25 52 25 49 C 26 46 31 33 33 31 C 34 31 35 30 36 28 C 39 21 54 17 60 21 z" fill="black"/><!-- width=86 height=107 -->
<path id="gl2561" d="M 30 7 C 28 7 25 8 24 9 C 22 10 21 11 20 11 C 18 12 13 16 12 19 C 12 20 10 22 10 22 C 7 24 7 36 9 40 C 11 43 16 49 19 49 C 20 50 22 51 24 52 C 25 52 27 54 29 54 C 31 55 33 56 34 57 C 36 57 37 58 39 59 C 43 60 46 60 46 61 C 46 61 47 62 48 63 C 52 65 54 72 51 78 C 48 85 34 89 24 86 C 18 84 17 83 18 76 C 18 70 17 69 13 69 C 7 69 6 71 6 81 C 6 84 6 87 5 88 C 4 91 5 91 10 94 C 21 99 43 99 49 95 C 49 94 51 94 52 93 C 55 91 60 87 61 85 C 61 84 62 83 63 82 C 66 79 66 64 63 61 C 63 60 61 58 61 57 C 60 56 59 55 58 54 C 57 54 56 53 55 52 C 54 51 51 50 49 49 C 48 49 45 48 43 47 C 42 46 40 45 37 45 C 36 45 34 44 33 43 C 32 42 30 41 27 40 C 21 37 19 32 22 25 C 23 22 23 22 28 19 C 34 17 34 17 40 17 C 51 17 54 19 54 26 C 53 32 55 34 60 34 C 65 34 66 33 66 22 C 66 10 66 10 58 8 C 51 6 36 5 30 7 z" fill="black"/><!-- width=73 height=105 -->
<path id="gl1793" d="M 38 5 C 31 7 30 9 30 19 C 31 29 30 30 25 29 C 18 28 15 30 15 34 C 15 39 17 40 23 39 C 31 39 31 39 30 49 C 30 54 30 58 30 59 C 30 60 29 64 29 67 C 28 70 28 75 28 77 C 27 78 27 81 27 81 C 27 82 27 84 27 86 C 25 88 25 91 25 97 C 25 106 25 106 27 108 C 28 109 29 112 30 113 C 30 114 31 115 32 117 C 33 117 35 118 36 119 C 37 120 39 120 46 120 C 58 120 59 120 64 117 C 68 113 69 111 67 105 C 66 102 66 102 64 103 C 63 105 62 105 61 105 C 61 105 58 106 55 107 C 48 109 44 109 40 105 C 39 104 39 96 40 86 C 40 82 40 79 40 78 C 40 77 40 75 40 72 C 42 66 43 58 43 51 C 43 44 44 40 45 39 C 46 39 50 39 56 40 C 67 41 68 41 70 36 C 72 33 72 31 70 30 C 67 28 68 28 51 29 C 43 30 42 28 43 24 C 43 23 44 19 45 15 C 45 12 45 9 45 9 C 46 8 45 6 43 5 C 42 4 42 4 38 5 z" fill="black"/><!-- width=80 height=127 -->
<path id="gl3328" d="M 17 19 C 16 20 15 21 15 24 C 15 30 16 30 22 30 C 28 30 30 32 31 39 C 31 42 33 45 33 46 C 34 48 34 49 36 60 C 36 62 37 65 38 66 C 39 67 39 70 40 72 C 40 74 40 78 41 79 C 41 81 42 84 43 85 C 43 87 44 90 45 94 C 46 97 46 101 48 102 C 48 104 49 108 50 112 C 51 116 52 120 52 121 C 53 123 54 127 54 130 C 55 139 55 139 65 139 C 67 139 70 140 72 140 C 73 139 73 139 73 138 C 74 138 75 136 75 136 C 75 135 76 134 76 133 C 78 132 79 129 79 127 C 80 124 81 122 82 121 C 82 120 83 118 84 115 C 84 114 85 111 86 109 C 87 108 88 106 88 104 C 89 102 90 100 91 99 C 91 97 93 94 93 93 C 94 91 95 88 96 87 C 96 85 97 83 98 81 C 99 78 100 75 101 75 C 102 75 103 75 103 75 C 106 74 106 76 108 87 C 109 90 110 95 111 97 C 111 100 112 104 112 106 C 112 108 114 113 115 116 C 116 120 117 124 117 125 C 117 131 118 136 120 138 C 121 139 122 139 128 139 C 133 140 138 139 138 138 C 138 138 138 136 139 135 C 140 133 141 131 141 130 C 142 126 143 123 144 121 C 145 121 145 118 146 115 C 147 112 148 109 149 108 C 150 107 151 105 151 103 C 151 102 153 99 153 98 C 154 96 155 93 156 91 C 156 88 157 85 159 84 C 159 84 160 81 161 78 C 162 76 163 73 163 72 C 164 71 165 69 165 67 C 166 63 167 61 168 59 C 169 58 170 56 171 53 C 171 51 172 48 173 46 C 174 45 175 43 175 42 C 175 38 177 36 179 33 C 181 31 182 30 184 30 C 188 30 189 30 190 24 C 191 23 192 22 192 21 C 192 20 191 20 190 19 C 190 19 189 18 189 18 C 183 18 178 18 172 18 C 151 18 151 18 151 25 C 150 28 153 30 157 30 C 159 30 160 30 162 31 C 162 31 162 33 162 34 C 162 39 159 46 157 49 C 157 49 156 52 155 54 C 154 57 154 59 153 60 C 153 61 151 64 151 67 C 150 70 149 73 148 74 C 147 76 145 79 145 82 C 145 82 145 85 144 87 C 143 88 141 93 141 95 C 140 98 139 102 138 103 C 138 105 136 108 136 111 C 135 114 134 115 133 116 C 132 117 131 118 130 119 C 130 120 129 120 129 121 C 129 120 129 118 129 117 C 128 115 127 112 127 109 C 126 106 125 101 124 98 C 123 94 122 90 122 87 C 121 84 121 81 120 81 C 120 79 118 76 117 66 C 116 63 115 60 115 58 C 114 56 113 52 112 49 C 112 46 111 42 111 39 C 108 33 109 31 113 30 C 117 30 118 28 120 25 C 121 21 121 21 119 19 C 117 18 116 18 100 18 C 80 18 79 18 78 24 C 78 29 80 30 87 30 C 88 30 90 30 91 30 C 91 31 92 32 93 33 C 99 46 99 51 96 57 C 94 60 93 63 93 64 C 93 66 91 68 91 69 C 90 70 89 72 88 74 C 88 76 87 79 86 80 C 85 81 84 84 84 86 C 83 88 82 90 81 91 C 81 93 79 95 79 97 C 78 99 77 102 76 103 C 76 105 75 107 74 109 C 73 113 67 123 67 123 C 66 123 65 118 64 114 C 64 112 63 107 62 104 C 61 100 60 96 60 93 C 60 91 58 86 58 83 C 57 81 55 76 55 72 C 55 69 54 65 53 63 C 52 61 51 57 51 54 C 50 50 49 46 48 45 C 46 40 45 32 47 31 C 48 30 49 30 51 30 C 54 30 55 28 56 24 C 57 18 57 18 36 18 C 19 18 19 18 17 19 z" fill="black"/><!-- width=201 height=146 -->
<path id="gl2048" d="M 46 2 C 44 3 41 3 40 4 C 39 5 36 6 35 7 C 34 7 32 8 31 9 C 30 10 28 11 27 12 C 26 12 24 13 24 15 C 23 16 22 18 21 18 C 21 19 19 21 18 22 C 18 24 16 27 16 27 C 15 28 15 30 13 37 C 12 40 12 43 10 45 C 8 52 9 74 12 78 C 12 78 13 80 13 81 C 15 86 15 87 22 91 C 28 94 37 94 42 91 C 43 90 45 88 45 88 C 46 88 51 84 52 81 C 54 79 54 78 55 78 C 55 78 56 76 57 75 C 57 73 58 71 60 70 C 61 68 62 66 63 64 C 63 62 63 60 64 60 C 64 59 64 58 64 58 C 65 58 65 60 66 60 C 67 63 66 73 65 76 C 64 78 63 82 62 90 C 61 94 63 94 74 94 C 86 94 87 94 88 90 C 88 89 89 87 89 87 C 89 87 85 83 84 82 C 84 82 82 82 81 82 C 75 83 75 82 76 63 C 76 57 76 51 76 48 C 76 45 77 42 78 40 C 78 39 78 36 78 33 C 78 31 79 28 79 27 C 80 26 81 21 81 13 C 82 7 81 6 76 5 C 75 4 72 4 69 3 C 66 2 51 1 46 2 M 64 13 C 69 15 69 23 64 35 C 64 38 63 42 62 44 C 61 46 60 49 60 51 C 59 52 58 55 57 57 C 57 59 55 61 55 62 C 54 63 53 65 52 66 C 51 70 42 79 38 80 C 31 82 27 80 24 75 C 22 70 23 42 26 37 C 27 36 28 33 28 31 C 29 28 30 26 36 21 C 39 17 43 15 51 13 C 54 12 63 12 64 13 z" fill="black"/><!-- width=98 height=101 -->
<path id="gl2561" d="M 30 7 C 28 7 25 8 24 9 C 22 10 21 11 20 11 C 18 12 13 16 12 19 C 12 20 10 22 10 22 C 7 24 7 36 9 40 C 11 43 16 49 19 49 C 20 50 22 51 24 52 C 25 52 27 54 29 54 C 31 55 33 56 34 57 C 36 57 37 58 39 59 C 43 60 46 60 46 61 C 46 61 47 62 48 63 C 52 65 54 72 51 78 C 48 85 34 89 24 86 C 18 84 17 83 18 76 C 18 70 17 69 13 69 C 7 69 6 71 6 81 C 6 84 6 87 5 88 C 4 91 5 91 10 94 C 21 99 43 99 49 95 C 49 94 51 94 52 93 C 55 91 60 87 61 85 C 61 84 62 83 63 82 C 66 79 66 64 63 61 C 63 60 61 58 61 57 C 60 56 59 55 58 54 C 57 54 56 53 55 52 C 54 51 51 50 49 49 C 48 49 45 48 43 47 C 42 46 40 45 37 45 C 36 45 34 44 33 43 C 32 42 30 41 27 40 C 21 37 19 32 22 25 C 23 22 23 22 28 19 C 34 17 34 17 40 17 C 51 17 54 19 54 26 C 53 32 55 34 60 34 C 65 34 66 33 66 22 C 66 10 66 10 58 8 C 51 6 36 5 30 7 z" fill="black"/><!-- width=73 height=105 -->
<path id="gl3328" d="M 17 19 C 16 20 15 21 15 24 C 15 30 16 30 22 30 C 28 30 30 32 31 39 C 31 42 33 45 33 46 C 34 48 34 49 36 60 C 36 62 37 65 38 66 C 39 67 39 70 40 72 C 40 74 40 78 41 79 C 41 81 42 84 43 85 C 43 87 44 90 45 94 C 46 97 46 101 48 102 C 48 104 49 108 50 112 C 51 116 52 120 52 121 C 53 123 54 127 54 130 C 55 139 55 139 65 139 C 67 139 70 140 72 140 C 73 139 73 139 73 138 C 74 138 75 136 75 136 C 75 135 76 134 76 133 C 78 132 79 129 79 127 C 80 124 81 122 82 121 C 82 120 83 118 84 115 C 84 114 85 111 86 109 C 87 108 88 106 88 104 C 89 102 90 100 91 99 C 91 97 93 94 93 93 C 94 91 95 88 96 87 C 96 85 97 83 98 81 C 99 78 100 75 101 75 C 102 75 103 75 103 75 C 106 74 106 76 108 87 C 109 90 110 95 111 97 C 111 100 112 104 112 106 C 112 108 114 113 115 116 C 116 120 117 124 117 125 C 117 131 118 136 120 138 C 121 139 122 139 128 139 C 133 140 138 139 138 138 C 138 138 138 136 139 135 C 140 133 141 131 141 130 C 142 126 143 123 144 121 C 145 121 145 118 146 115 C 147 112 148 109 149 108 C 150 107 151 105 151 103 C 151 102 153 99 153 98 C 154 96 155 93 156 91 C 156 88 157 85 159 84 C 159 84 160 81 161 78 C 162 76 163 73 163 72 C 164 71 165 69 165 67 C 166 63 167 61 168 59 C 169 58 170 56 171 53 C 171 51 172 48 173 46 C 174 45 175 43 175 42 C 175 38 177 36 179 33 C 181 31 182 30 184 30 C 188 30 189 30 190 24 C 191 23 192 22 192 21 C 192 20 191 20 190 19 C 190 19 189 18 189 18 C 183 18 178 18 172 18 C 151 18 151 18 151 25 C 150 28 153 30 157 30 C 159 30 160 30 162 31 C 162 31 162 33 162 34 C 162 39 159 46 157 49 C 157 49 156 52 155 54 C 154 57 154 59 153 60 C 153 61 151 64 151 67 C 150 70 149 73 148 74 C 147 76 145 79 145 82 C 145 82 145 85 144 87 C 143 88 141 93 141 95 C 140 98 139 102 138 103 C 138 105 136 108 136 111 C 135 114 134 115 133 116 C 132 117 131 118 130 119 C 130 120 129 120 129 121 C 129 120 129 118 129 117 C 128 115 127 112 127 109 C 126 106 125 101 124 98 C 123 94 122 90 122 87 C 121 84 121 81 120 81 C 120 79 118 76 117 66 C 116 63 115 60 115 58 C 114 56 113 52 112 49 C 112 46 111 42 111 39 C 108 33 109 31 113 30 C 117 30 118 28 120 25 C 121 21 121 21 119 19 C 117 18 116 18 100 18 C 80 18 79 18 78 24 C 78 29 80 30 87 30 C 88 30 90 30 91 30 C 91 31 92 32 93 33 C 99 46 99 51 96 57 C 94 60 93 63 93 64 C 93 66 91 68 91 69 C 90 70 89 72 88 74 C 88 76 87 79 86 80 C 85 81 84 84 84 86 C 83 88 82 90 81 91 C 81 93 79 95 79 97 C 78 99 77 102 76 103 C 76 105 75 107 74 109 C 73 113 67 123 67 123 C 66 123 65 118 64 114 C 64 112 63 107 62 104 C 61 100 60 96 60 93 C 60 91 58 86 58 83 C 57 81 55 76 55 72 C 55 69 54 65 53 63 C 52 61 51 57 51 54 C 50 50 49 46 48 45 C 46 40 45 32 47 31 C 48 30 49 30 51 30 C 54 30 55 28 56 24 C 57 18 57 18 36 18 C 19 18 19 18 17 19 z" fill="black"/><!-- width=201 height=146 -->
<path id="gl1794" d="M 40 7 C 37 7 29 11 26 14 C 24 16 22 18 19 21 C 18 22 16 24 15 26 C 15 28 13 30 13 31 C 12 32 12 36 11 40 C 10 44 9 48 9 49 C 7 52 7 62 9 67 C 11 76 12 82 14 84 C 15 84 15 85 15 86 C 15 87 21 92 24 93 C 26 94 28 95 28 96 C 28 97 36 98 44 97 C 46 97 49 97 52 97 C 54 96 55 96 58 94 C 63 91 67 89 72 83 C 73 81 75 79 75 79 C 75 79 75 77 76 76 C 78 74 78 72 79 69 C 79 66 79 64 80 63 C 81 62 81 60 81 59 C 81 58 81 55 82 54 C 83 50 83 42 81 35 C 80 32 79 28 79 26 C 78 22 78 22 75 19 C 73 15 69 12 66 10 C 65 10 63 9 62 9 C 60 6 49 6 40 7 M 57 20 C 61 22 64 24 67 30 C 67 31 68 33 69 34 C 69 39 69 43 69 47 C 69 52 69 56 69 60 C 68 61 67 63 67 64 C 66 67 64 70 64 71 C 64 73 58 81 56 82 C 54 83 45 86 42 86 C 35 87 27 81 23 72 C 22 70 21 69 21 67 C 21 63 21 60 21 57 C 21 45 22 43 24 39 C 24 37 25 34 25 33 C 27 30 33 22 34 22 C 45 18 50 17 57 20 z" fill="black"/><!-- width=91 height=105 -->
<path id="gl2307" d="M 13 14 C 12 15 10 20 11 22 C 12 24 15 25 18 25 C 21 24 21 25 22 25 C 24 26 25 31 24 33 C 24 34 24 39 23 44 C 22 65 21 73 20 75 C 19 76 19 80 19 82 C 19 85 18 90 18 93 C 18 97 17 100 16 101 C 14 105 22 108 29 105 C 32 103 32 103 33 90 C 33 82 34 77 36 73 C 36 73 37 70 37 67 C 38 64 39 61 40 60 C 40 59 42 57 42 55 C 42 54 43 52 44 51 C 45 50 46 48 46 46 C 50 39 58 30 64 28 C 66 27 68 26 68 26 C 69 25 75 28 75 30 C 77 33 76 56 74 62 C 73 64 73 66 73 67 C 73 67 73 69 73 71 C 72 72 72 77 72 81 C 70 94 70 99 68 100 C 68 101 67 102 67 103 C 67 103 68 103 68 104 C 69 105 70 105 81 106 C 95 106 96 106 96 102 C 96 101 97 99 97 99 C 97 98 96 97 96 96 C 94 94 94 94 91 94 C 84 94 84 93 85 79 C 85 77 86 70 87 63 C 88 57 88 50 89 48 C 89 46 90 41 90 36 C 90 34 90 31 90 28 C 89 27 88 25 87 24 C 84 16 79 13 71 14 C 66 14 65 14 63 16 C 61 17 59 18 59 18 C 57 18 49 27 47 30 C 46 31 45 33 45 34 C 44 34 43 36 43 37 C 42 39 41 41 39 43 C 37 45 36 46 36 47 C 36 48 36 49 36 50 C 36 51 35 51 35 52 C 34 51 34 50 34 49 C 33 46 33 40 34 37 C 36 36 36 35 36 34 C 36 33 37 28 37 24 C 40 13 40 13 25 13 C 19 13 14 13 13 14 z" fill="black"/><!-- width=107 height=112 -->
<path id="gl4352" d="M 17 7 C 15 7 15 7 15 10 C 15 15 17 17 22 17 C 28 18 28 18 28 21 C 29 23 28 36 27 46 C 27 49 26 54 26 57 C 26 60 25 63 25 64 C 25 65 24 68 24 70 C 24 72 24 76 24 78 C 24 81 23 88 23 94 C 22 112 21 115 15 115 C 10 115 9 118 9 123 C 9 127 8 127 28 127 C 49 127 49 127 49 121 C 49 116 48 115 41 115 C 38 115 36 115 36 114 C 34 114 36 101 36 97 C 37 96 37 91 37 79 C 38 73 35 73 67 73 C 99 73 97 73 96 79 C 96 81 96 86 95 91 C 94 113 93 115 87 115 C 82 115 81 117 81 122 C 81 127 80 127 100 127 C 121 127 120 127 120 121 C 120 116 120 115 113 115 C 111 115 108 115 108 114 C 107 114 107 103 108 99 C 109 91 109 91 110 75 C 111 66 111 57 112 55 C 113 48 114 41 114 31 C 115 19 115 18 119 18 C 124 17 127 15 129 12 C 130 6 128 6 106 6 C 87 6 87 6 87 10 C 87 15 90 17 96 17 C 101 17 101 17 100 39 C 99 56 98 61 97 62 C 96 63 43 63 41 62 C 39 61 39 58 40 54 C 40 51 40 46 41 42 C 42 39 43 33 43 28 C 43 18 43 17 48 17 C 51 17 52 17 54 15 C 57 12 58 9 55 7 C 53 5 20 5 17 7 z" fill="black"/><!-- width=136 height=133 -->
<path id="gl1794" d="M 40 7 C 37 7 29 11 26 14 C 24 16 22 18 19 21 C 18 22 16 24 15 26 C 15 28 13 30 13 31 C 12 32 12 36 11 40 C 10 44 9 48 9 49 C 7 52 7 62 9 67 C 11 76 12 82 14 84 C 15 84 15 85 15 86 C 15 87 21 92 24 93 C 26 94 28 95 28 96 C 28 97 36 98 44 97 C 46 97 49 97 52 97 C 54 96 55 96 58 94 C 63 91 67 89 72 83 C 73 81 75 79 75 79 C 75 79 75 77 76 76 C 78 74 78 72 79 69 C 79 66 79 64 80 63 C 81 62 81 60 81 59 C 81 58 81 55 82 54 C 83 50 83 42 81 35 C 80 32 79 28 79 26 C 78 22 78 22 75 19 C 73 15 69 12 66 10 C 65 10 63 9 62 9 C 60 6 49 6 40 7 M 57 20 C 61 22 64 24 67 30 C 67 31 68 33 69 34 C 69 39 69 43 69 47 C 69 52 69 56 69 60 C 68 61 67 63 67 64 C 66 67 64 70 64 71 C 64 73 58 81 56 82 C 54 83 45 86 42 86 C 35 87 27 81 23 72 C 22 70 21 69 21 67 C 21 63 21 60 21 57 C 21 45 22 43 24 39 C 24 37 25 34 25 33 C 27 30 33 22 34 22 C 45 18 50 17 57 20 z" fill="black"/><!-- width=91 height=105 -->
<path id="gl4353" d="M 10 5 C 7 6 7 6 6 10 C 6 15 7 16 13 16 C 16 17 19 17 19 18 C 20 19 21 25 20 28 C 19 30 19 34 18 37 C 18 41 18 45 18 46 C 16 51 16 72 18 75 C 18 76 19 78 19 79 C 19 79 19 81 19 81 C 19 81 20 82 21 84 C 22 90 28 95 34 97 C 37 97 46 97 48 97 C 51 96 58 91 58 90 C 58 90 60 88 61 87 C 63 85 64 82 69 75 C 70 72 71 70 71 70 C 72 69 74 73 75 79 C 75 82 75 85 76 85 C 77 87 78 88 78 90 C 79 91 81 93 83 94 C 84 95 85 96 87 97 C 89 97 91 97 94 97 C 100 97 101 97 102 96 C 103 95 105 94 107 93 C 111 91 115 87 117 83 C 118 82 119 81 120 80 C 121 79 121 78 122 76 C 123 74 124 72 124 70 C 126 68 127 66 127 62 C 127 61 129 58 129 55 C 130 52 131 48 132 43 C 132 37 133 32 133 30 C 134 28 134 24 134 22 C 134 19 135 17 135 16 C 136 15 136 8 136 7 C 135 5 132 5 122 5 C 109 5 108 5 107 10 C 106 15 108 17 115 16 C 117 16 120 16 120 16 C 121 16 122 21 121 24 C 121 26 121 30 121 33 C 120 36 120 40 119 42 C 118 44 117 48 117 51 C 117 54 115 58 115 60 C 114 61 113 64 112 67 C 111 69 110 72 109 73 C 108 74 108 75 108 75 C 108 76 102 82 99 83 C 95 85 95 85 93 84 C 88 82 88 82 85 78 C 85 77 84 76 84 75 C 84 68 84 62 84 55 C 84 36 84 22 86 19 C 87 18 87 15 87 12 C 87 10 88 9 88 7 C 87 7 87 6 85 6 C 84 5 82 5 79 5 C 73 5 73 5 72 16 C 72 21 71 27 70 30 C 70 33 69 39 69 43 C 68 48 67 52 66 54 C 66 55 65 58 64 60 C 64 64 60 72 57 75 C 56 76 55 78 54 79 C 54 81 51 82 46 84 C 43 85 39 84 36 82 C 33 79 31 73 31 67 C 31 57 31 38 33 34 C 33 32 33 28 33 27 C 33 24 34 21 34 20 C 35 18 36 7 36 7 C 34 5 32 5 22 5 C 16 5 10 5 10 5 z" fill="black"/><!-- width=144 height=104 -->
<path id="gl1793" d="M 38 5 C 31 7 30 9 30 19 C 31 29 30 30 25 29 C 18 28 15 30 15 34 C 15 39 17 40 23 39 C 31 39 31 39 30 49 C 30 54 30 58 30 59 C 30 60 29 64 29 67 C 28 70 28 75 28 77 C 27 78 27 81 27 81 C 27 82 27 84 27 86 C 25 88 25 91 25 97 C 25 106 25 106 27 108 C 28 109 29 112 30 113 C 30 114 31 115 32 117 C 33 117 35 118 36 119 C 37 120 39 120 46 120 C 58 120 59 120 64 117 C 68 113 69 111 67 105 C 66 102 66 102 64 103 C 63 105 62 105 61 105 C 61 105 58 106 55 107 C 48 109 44 109 40 105 C 39 104 39 96 40 86 C 40 82 40 79 40 78 C 40 77 40 75 40 72 C 42 66 43 58 43 51 C 43 44 44 40 45 39 C 46 39 50 39 56 40 C 67 41 68 41 70 36 C 72 33 72 31 70 30 C 67 28 68 28 51 29 C 43 30 42 28 43 24 C 43 23 44 19 45 15 C 45 12 45 9 45 9 C 46 8 45 6 43 5 C 42 4 42 4 38 5 z" fill="black"/><!-- width=80 height=127 -->
<path id="gl1794" d="M 40 7 C 37 7 29 11 26 14 C 24 16 22 18 19 21 C 18 22 16 24 15 26 C 15 28 13 30 13 31 C 12 32 12 36 11 40 C 10 44 9 48 9 49 C 7 52 7 62 9 67 C 11 76 12 82 14 84 C 15 84 15 85 15 86 C 15 87 21 92 24 93 C 26 94 28 95 28 96 C 28 97 36 98 44 97 C 46 97 49 97 52 97 C 54 96 55 96 58 94 C 63 91 67 89 72 83 C 73 81 75 79 75 79 C 75 79 75 77 76 76 C 78 74 78 72 79 69 C 79 66 79 64 80 63 C 81 62 81 60 81 59 C 81 58 81 55 82 54 C 83 50 83 42 81 35 C 80 32 79 28 79 26 C 78 22 78 22 75 19 C 73 15 69 12 66 10 C 65 10 63 9 62 9 C 60 6 49 6 40 7 M 57 20 C 61 22 64 24 67 30 C 67 31 68 33 69 34 C 69 39 69 43 69 47 C 69 52 69 56 69 60 C 68 61 67 63 67 64 C 66 67 64 70 64 71 C 64 73 58 81 56 82 C 54 83 45 86 42 86 C 35 87 27 81 23 72 C 22 70 21 69 21 67 C 21 63 21 60 21 57 C 21 45 22 43 24 39 C 24 37 25 34 25 33 C 27 30 33 22 34 22 C 45 18 50 17 57 20 z" fill="black"/><!-- width=91 height=105 -->
<path id="gl4354" d="M 15 2 C 11 3 9 8 12 10 C 13 12 16 13 19 13 C 24 12 24 13 24 20 C 25 23 24 28 24 30 C 23 37 22 45 21 50 C 21 52 21 54 21 54 C 20 55 19 67 19 76 C 19 79 18 85 18 88 C 18 91 17 97 17 100 C 16 108 15 111 11 111 C 10 111 8 111 7 111 C 4 112 3 119 6 121 C 6 122 6 122 7 123 C 12 123 18 123 23 123 C 42 123 42 123 42 118 C 42 113 40 111 33 111 C 29 111 28 109 29 97 C 30 92 30 85 31 82 C 31 80 31 75 31 72 C 32 68 33 64 33 62 C 33 60 33 52 33 44 C 34 31 34 26 36 26 C 37 26 37 28 39 31 C 39 33 40 36 41 38 C 42 40 43 44 44 49 C 45 51 45 54 46 56 C 46 58 48 62 48 65 C 49 68 50 73 51 75 C 52 78 52 80 52 81 C 52 82 55 90 56 92 C 57 93 57 96 58 98 C 58 100 59 104 60 107 C 61 110 62 114 62 116 C 63 122 64 123 71 123 C 79 123 80 122 82 115 C 82 114 84 111 84 109 C 85 108 86 105 87 103 C 87 101 88 99 90 98 C 90 97 91 96 91 95 C 91 93 93 89 94 88 C 95 87 96 84 96 82 C 97 80 98 77 99 76 C 100 75 101 73 101 72 C 101 72 102 69 103 67 C 105 64 105 62 105 61 C 105 61 106 59 108 57 C 108 55 110 51 111 49 C 111 47 112 45 113 43 C 114 42 114 40 115 38 C 116 36 117 34 118 33 C 119 32 120 30 121 28 C 123 21 124 25 124 36 C 124 41 124 44 123 45 C 122 46 120 63 119 88 C 119 91 118 93 118 94 C 118 95 118 98 118 100 C 118 108 116 111 111 111 C 106 111 105 112 105 118 C 105 123 104 123 125 123 C 146 123 145 123 145 117 C 145 112 144 111 138 111 C 131 111 130 108 132 99 C 132 96 133 93 133 90 C 133 88 133 85 133 84 C 134 82 135 75 135 58 C 135 46 136 36 136 35 C 136 34 136 31 136 29 C 136 24 136 21 139 16 C 140 13 141 13 144 13 C 148 13 150 12 150 7 C 150 1 150 1 135 1 C 127 1 121 2 120 3 C 118 3 117 6 115 11 C 115 13 113 16 112 18 C 111 21 111 23 111 24 C 111 24 109 25 108 27 C 108 28 106 31 106 33 C 105 34 104 37 103 38 C 102 39 101 42 101 43 C 100 44 99 46 99 47 C 97 48 96 51 96 54 C 95 56 94 58 93 60 C 93 60 91 62 91 63 C 91 65 90 67 88 69 C 88 71 87 74 86 76 C 85 78 85 81 84 81 C 83 82 82 84 82 86 C 81 88 80 90 79 91 C 79 92 78 95 78 97 C 76 103 75 105 73 103 C 72 102 68 89 67 84 C 67 81 66 78 65 75 C 64 73 63 69 63 66 C 62 63 61 60 60 58 C 60 57 58 54 58 51 C 57 48 56 43 55 41 C 54 39 53 35 52 33 C 52 30 51 27 51 25 C 50 24 49 19 48 16 C 47 10 45 4 43 3 C 42 2 16 1 15 2 z" fill="black"/><!-- width=156 height=129 -->
<path id="gl2048" d="M 46 2 C 44 3 41 3 40 4 C 39 5 36 6 35 7 C 34 7 32 8 31 9 C 30 10 28 11 27 12 C 26 12 24 13 24 15 C 23 16 22 18 21 18 C 21 19 19 21 18 22 C 18 24 16 27 16 27 C 15 28 15 30 13 37 C 12 40 12 43 10 45 C 8 52 9 74 12 78 C 12 78 13 80 13 81 C 15 86 15 87 22 91 C 28 94 37 94 42 91 C 43 90 45 88 45 88 C 46 88 51 84 52 81 C 54 79 54 78 55 78 C 55 78 56 76 57 75 C 57 73 58 71 60 70 C 61 68 62 66 63 64 C 63 62 63 60 64 60 C 64 59 64 58 64 58 C 65 58 65 60 66 60 C 67 63 66 73 65 76 C 64 78 63 82 62 90 C 61 94 63 94 74 94 C 86 94 87 94 88 90 C 88 89 89 87 89 87 C 89 87 85 83 84 82 C 84 82 82 82 81 82 C 75 83 75 82 76 63 C 76 57 76 51 76 48 C 76 45 77 42 78 40 C 78 39 78 36 78 33 C 78 31 79 28 79 27 C 80 26 81 21 81 13 C 82 7 81 6 76 5 C 75 4 72 4 69 3 C 66 2 51 1 46 2 M 64 13 C 69 15 69 23 64 35 C 64 38 63 42 62 44 C 61 46 60 49 60 51 C 59 52 58 55 57 57 C 57 59 55 61 55 62 C 54 63 53 65 52 66 C 51 70 42 79 38 80 C 31 82 27 80 24 75 C 22 70 23 42 26 37 C 27 36 28 33 28 31 C 29 28 30 26 36 21 C 39 17 43 15 51 13 C 54 12 63 12 64 13 z" fill="black"/><!-- width=98 height=101 -->
<path id="gl3594" d="M 17 2 C 14 3 13 4 13 8 C 14 12 16 13 22 13 C 27 13 28 14 30 17 C 31 20 31 22 30 26 C 28 28 27 38 27 62 C 26 76 25 82 25 83 C 24 84 24 86 24 91 C 24 104 21 123 20 127 C 16 135 20 139 29 138 C 34 137 34 137 34 123 C 35 107 36 102 38 100 C 40 99 40 99 43 102 C 43 103 45 106 46 107 C 47 108 48 109 48 110 C 48 111 49 111 49 112 C 50 113 52 115 52 116 C 53 117 54 118 54 118 C 54 118 55 120 56 121 C 60 126 62 130 64 132 C 65 133 66 134 66 135 C 67 137 69 138 79 138 C 90 138 90 137 91 133 C 92 126 90 124 83 125 C 82 125 80 126 78 126 C 78 124 77 124 76 123 C 73 120 67 112 63 109 C 62 108 60 105 58 103 C 54 99 56 96 64 94 C 67 93 69 93 69 91 C 70 91 72 90 73 89 C 75 88 76 87 77 87 C 84 81 85 80 86 77 C 87 75 88 73 88 73 C 90 71 91 63 90 58 C 89 55 86 50 81 47 C 78 45 70 44 65 45 C 59 46 51 54 46 61 C 45 62 44 64 43 64 C 43 64 42 66 41 68 C 39 73 39 72 39 64 C 39 60 39 57 40 56 C 40 54 42 47 43 30 C 43 24 44 17 45 13 C 46 5 46 4 44 3 C 42 1 20 1 17 2 M 71 58 C 75 60 76 61 76 66 C 76 69 76 71 76 72 C 75 75 66 83 63 84 C 62 84 61 85 60 86 C 58 87 56 88 54 90 C 52 90 49 92 48 92 C 46 94 40 94 39 93 C 37 91 37 90 39 87 C 40 85 41 82 42 81 C 42 79 43 77 44 76 C 45 75 46 73 46 73 C 50 66 60 58 67 57 C 67 57 68 57 68 57 C 68 57 69 57 71 58 z" fill="black"/><!-- width=97 height=153 -->
<path id="gl1538" d="M 45 9 C 43 9 42 10 40 10 C 39 11 37 12 36 13 C 34 13 32 15 31 16 C 31 16 30 18 28 18 C 28 19 27 20 26 21 C 25 22 24 24 24 25 C 21 28 17 36 16 39 C 16 40 16 42 15 43 C 15 44 15 46 15 47 C 15 48 14 51 13 52 C 11 58 14 82 18 87 C 18 87 20 89 21 91 C 22 93 24 94 27 96 C 29 97 32 98 33 99 C 36 100 57 100 61 98 C 63 97 66 96 68 96 C 72 94 73 93 73 87 C 75 81 73 79 67 82 C 66 82 66 82 66 82 C 66 84 62 85 58 85 C 57 86 55 87 54 87 C 52 88 43 88 42 88 C 41 87 39 87 37 86 C 28 83 23 71 27 64 C 28 62 30 62 36 62 C 43 62 47 61 52 59 C 54 58 56 57 57 57 C 63 55 73 46 76 40 C 79 34 79 34 79 28 C 79 23 79 22 78 21 C 77 19 75 18 75 16 C 73 15 72 13 70 13 C 69 12 67 11 66 10 C 64 9 51 8 45 9 M 60 21 C 65 24 66 24 66 30 C 66 33 65 35 64 37 C 63 40 56 45 53 46 C 51 47 49 49 47 49 C 45 50 42 51 39 52 C 37 52 33 54 31 54 C 30 55 28 55 28 55 C 27 55 25 52 25 49 C 26 46 31 33 33 31 C 34 31 35 30 36 28 C 39 21 54 17 60 21 z" fill="black"/><!-- width=86 height=107 -->
<path id="gl2048" d="M 46 2 C 44 3 41 3 40 4 C 39 5 36 6 35 7 C 34 7 32 8 31 9 C 30 10 28 11 27 12 C 26 12 24 13 24 15 C 23 16 22 18 21 18 C 21 19 19 21 18 22 C 18 24 16 27 16 27 C 15 28 15 30 13 37 C 12 40 12 43 10 45 C 8 52 9 74 12 78 C 12 78 13 80 13 81 C 15 86 15 87 22 91 C 28 94 37 94 42 91 C 43 90 45 88 45 88 C 46 88 51 84 52 81 C 54 79 54 78 55 78 C 55 78 56 76 57 75 C 57 73 58 71 60 70 C 61 68 62 66 63 64 C 63 62 63 60 64 60 C 64 59 64 58 64 58 C 65 58 65 60 66 60 C 67 63 66 73 65 76 C 64 78 63 82 62 90 C 61 94 63 94 74 94 C 86 94 87 94 88 90 C 88 89 89 87 89 87 C 89 87 85 83 84 82 C 84 82 82 82 81 82 C 75 83 75 82 76 63 C 76 57 76 51 76 48 C 76 45 77 42 78 40 C 78 39 78 36 78 33 C 78 31 79 28 79 27 C 80 26 81 21 81 13 C 82 7 81 6 76 5 C 75 4 72 4 69 3 C 66 2 51 1 46 2 M 64 13 C 69 15 69 23 64 35 C 64 38 63 42 62 44 C 61 46 60 49 60 51 C 59 52 58 55 57 57 C 57 59 55 61 55 62 C 54 63 53 65 52 66 C 51 70 42 79 38 80 C 31 82 27 80 24 75 C 22 70 23 42 26 37 C 27 36 28 33 28 31 C 29 28 30 26 36 21 C 39 17 43 15 51 13 C 54 12 63 12 64 13 z" fill="black"/><!-- width=98 height=101 -->
<path id="gl4354" d="M 15 2 C 11 3 9 8 12 10 C 13 12 16 13 19 13 C 24 12 24 13 24 20 C 25 23 24 28 24 30 C 23 37 22 45 21 50 C 21 52 21 54 21 54 C 20 55 19 67 19 76 C 19 79 18 85 18 88 C 18 91 17 97 17 100 C 16 108 15 111 11 111 C 10 111 8 111 7 111 C 4 112 3 119 6 121 C 6 122 6 122 7 123 C 12 123 18 123 23 123 C 42 123 42 123 42 118 C 42 113 40 111 33 111 C 29 111 28 109 29 97 C 30 92 30 85 31 82 C 31 80 31 75 31 72 C 32 68 33 64 33 62 C 33 60 33 52 33 44 C 34 31 34 26 36 26 C 37 26 37 28 39 31 C 39 33 40 36 41 38 C 42 40 43 44 44 49 C 45 51 45 54 46 56 C 46 58 48 62 48 65 C 49 68 50 73 51 75 C 52 78 52 80 52 81 C 52 82 55 90 56 92 C 57 93 57 96 58 98 C 58 100 59 104 60 107 C 61 110 62 114 62 116 C 63 122 64 123 71 123 C 79 123 80 122 82 115 C 82 114 84 111 84 109 C 85 108 86 105 87 103 C 87 101 88 99 90 98 C 90 97 91 96 91 95 C 91 93 93 89 94 88 C 95 87 96 84 96 82 C 97 80 98 77 99 76 C 100 75 101 73 101 72 C 101 72 102 69 103 67 C 105 64 105 62 105 61 C 105 61 106 59 108 57 C 108 55 110 51 111 49 C 111 47 112 45 113 43 C 114 42 114 40 115 38 C 116 36 117 34 118 33 C 119 32 120 30 121 28 C 123 21 124 25 124 36 C 124 41 124 44 123 45 C 122 46 120 63 119 88 C 119 91 118 93 118 94 C 118 95 118 98 118 100 C 118 108 116 111 111 111 C 106 111 105 112 105 118 C 105 123 104 123 125 123 C 146 123 145 123 145 117 C 145 112 144 111 138 111 C 131 111 130 108 132 99 C 132 96 133 93 133 90 C 133 88 133 85 133 84 C 134 82 135 75 135 58 C 135 46 136 36 136 35 C 136 34 136 31 136 29 C 136 24 136 21 139 16 C 140 13 141 13 144 13 C 148 13 150 12 150 7 C 150 1 150 1 135 1 C 127 1 121 2 120 3 C 118 3 117 6 115 11 C 115 13 113 16 112 18 C 111 21 111 23 111 24 C 111 24 109 25 108 27 C 108 28 106 31 106 33 C 105 34 104 37 103 38 C 102 39 101 42 101 43 C 100 44 99 46 99 47 C 97 48 96 51 96 54 C 95 56 94 58 93 60 C 93 60 91 62 91 63 C 91 65 90 67 88 69 C 88 71 87 74 86 76 C 85 78 85 81 84 81 C 83 82 82 84 82 86 C 81 88 80 90 79 91 C 79 92 78 95 78 97 C 76 103 75 105 73 103 C 72 102 68 89 67 84 C 67 81 66 78 65 75 C 64 73 63 69 63 66 C 62 63 61 60 60 58 C 60 57 58 54 58 51 C 57 48 56 43 55 41 C 54 39 53 35 52 33 C 52 30 51 27 51 25 C 50 24 49 19 48 16 C 47 10 45 4 43 3 C 42 2 16 1 15 2 z" fill="black"/><!-- width=156 height=129 -->
<path id="gl1794" d="M 40 7 C 37 7 29 11 26 14 C 24 16 22 18 19 21 C 18 22 16 24 15 26 C 15 28 13 30 13 31 C 12 32 12 36 11 40 C 10 44 9 48 9 49 C 7 52 7 62 9 67 C 11 76 12 82 14 84 C 15 84 15 85 15 86 C 15 87 21 92 24 93 C 26 94 28 95 28 96 C 28 97 36 98 44 97 C 46 97 49 97 52 97 C 54 96 55 96 58 94 C 63 91 67 89 72 83 C 73 81 75 79 75 79 C 75 79 75 77 76 76 C 78 74 78 72 79 69 C 79 66 79 64 80 63 C 81 62 81 60 81 59 C 81 58 81 55 82 54 C 83 50 83 42 81 35 C 80 32 79 28 79 26 C 78 22 78 22 75 19 C 73 15 69 12 66 10 C 65 10 63 9 62 9 C 60 6 49 6 40 7 M 57 20 C 61 22 64 24 67 30 C 67 31 68 33 69 34 C 69 39 69 43 69 47 C 69 52 69 56 69 60 C 68 61 67 63 67 64 C 66 67 64 70 64 71 C 64 73 58 81 56 82 C 54 83 45 86 42 86 C 35 87 27 81 23 72 C 22 70 21 69 21 67 C 21 63 21 60 21 57 C 21 45 22 43 24 39 C 24 37 25 34 25 33 C 27 30 33 22 34 22 C 45 18 50 17 57 20 z" fill="black"/><!-- width=91 height=105 -->
<path id="gl2307" d="M 13 14 C 12 15 10 20 11 22 C 12 24 15 25 18 25 C 21 24 21 25 22 25 C 24 26 25 31 24 33 C 24 34 24 39 23 44 C 22 65 21 73 20 75 C 19 76 19 80 19 82 C 19 85 18 90 18 93 C 18 97 17 100 16 101 C 14 105 22 108 29 105 C 32 103 32 103 33 90 C 33 82 34 77 36 73 C 36 73 37 70 37 67 C 38 64 39 61 40 60 C 40 59 42 57 42 55 C 42 54 43 52 44 51 C 45 50 46 48 46 46 C 50 39 58 30 64 28 C 66 27 68 26 68 26 C 69 25 75 28 75 30 C 77 33 76 56 74 62 C 73 64 73 66 73 67 C 73 67 73 69 73 71 C 72 72 72 77 72 81 C 70 94 70 99 68 100 C 68 101 67 102 67 103 C 67 103 68 103 68 104 C 69 105 70 105 81 106 C 95 106 96 106 96 102 C 96 101 97 99 97 99 C 97 98 96 97 96 96 C 94 94 94 94 91 94 C 84 94 84 93 85 79 C 85 77 86 70 87 63 C 88 57 88 50 89 48 C 89 46 90 41 90 36 C 90 34 90 31 90 28 C 89 27 88 25 87 24 C 84 16 79 13 71 14 C 66 14 65 14 63 16 C 61 17 59 18 59 18 C 57 18 49 27 47 30 C 46 31 45 33 45 34 C 44 34 43 36 43 37 C 42 39 41 41 39 43 C 37 45 36 46 36 47 C 36 48 36 49 36 50 C 36 51 35 51 35 52 C 34 51 34 50 34 49 C 33 46 33 40 34 37 C 36 36 36 35 36 34 C 36 33 37 28 37 24 C 40 13 40 13 25 13 C 19 13 14 13 13 14 z" fill="black"/><!-- width=107 height=112 -->
<path id="gl2561" d="M 30 7 C 28 7 25 8 24 9 C 22 10 21 11 20 11 C 18 12 13 16 12 19 C 12 20 10 22 10 22 C 7 24 7 36 9 40 C 11 43 16 49 19 49 C 20 50 22 51 24 52 C 25 52 27 54 29 54 C 31 55 33 56 34 57 C 36 57 37 58 39 59 C 43 60 46 60 46 61 C 46 61 47 62 48 63 C 52 65 54 72 51 78 C 48 85 34 89 24 86 C 18 84 17 83 18 76 C 18 70 17 69 13 69 C 7 69 6 71 6 81 C 6 84 6 87 5 88 C 4 91 5 91 10 94 C 21 99 43 99 49 95 C 49 94 51 94 52 93 C 55 91 60 87 61 85 C 61 84 62 83 63 82 C 66 79 66 64 63 61 C 63 60 61 58 61 57 C 60 56 59 55 58 54 C 57 54 56 53 55 52 C 54 51 51 50 49 49 C 48 49 45 48 43 47 C 42 46 40 45 37 45 C 36 45 34 44 33 43 C 32 42 30 41 27 40 C 21 37 19 32 22 25 C 23 22 23 22 28 19 C 34 17 34 17 40 17 C 51 17 54 19 54 26 C 53 32 55 34 60 34 C 65 34 66 33 66 22 C 66 10 66 10 58 8 C 51 6 36 5 30 7 z" fill="black"/><!-- width=73 height=105 -->
<path id="gl1793" d="M 38 5 C 31 7 30 9 30 19 C 31 29 30 30 25 29 C 18 28 15 30 15 34 C 15 39 17 40 23 39 C 31 39 31 39 30 49 C 30 54 30 58 30 59 C 30 60 29 64 29 67 C 28 70 28 75 28 77 C 27 78 27 81 27 81 C 27 82 27 84 27 86 C 25 88 25 91 25 97 C 25 106 25 106 27 108 C 28 109 29 112 30 113 C 30 114 31 115 32 117 C 33 117 35 118 36 119 C 37 120 39 120 46 120 C 58 120 59 120 64 117 C 68 113 69 111 67 105 C 66 102 66 102 64 103 C 63 105 62 105 61 105 C 61 105 58 106 55 107 C 48 109 44 109 40 105 C 39 104 39 96 40 86 C 40 82 40 79 40 78 C 40 77 40 75 40 72 C 42 66 43 58 43 51 C 43 44 44 40 45 39 C 46 39 50 39 56 40 C 67 41 68 41 70 36 C 72 33 72 31 70 30 C 67 28 68 28 51 29 C 43 30 42 28 43 24 C 43 23 44 19 45 15 C 45 12 45 9 45 9 C 46 8 45 6 43 5 C 42 4 42 4 38 5 z" fill="black"/><!-- width=80 height=127 -->
<path id="gl1538" d="M 45 9 C 43 9 42 10 40 10 C 39 11 37 12 36 13 C 34 13 32 15 31 16 C 31 16 30 18 28 18 C 28 19 27 20 26 21 C 25 22 24 24 24 25 C 21 28 17 36 16 39 C 16 40 16 42 15 43 C 15 44 15 46 15 47 C 15 48 14 51 13 52 C 11 58 14 82 18 87 C 18 87 20 89 21 91 C 22 93 24 94 27 96 C 29 97 32 98 33 99 C 36 100 57 100 61 98 C 63 97 66 96 68 96 C 72 94 73 93 73 87 C 75 81 73 79 67 82 C 66 82 66 82 66 82 C 66 84 62 85 58 85 C 57 86 55 87 54 87 C 52 88 43 88 42 88 C 41 87 39 87 37 86 C 28 83 23 71 27 64 C 28 62 30 62 36 62 C 43 62 47 61 52 59 C 54 58 56 57 57 57 C 63 55 73 46 76 40 C 79 34 79 34 79 28 C 79 23 79 22 78 21 C 77 19 75 18 75 16 C 73 15 72 13 70 13 C 69 12 67 11 66 10 C 64 9 51 8 45 9 M 60 21 C 65 24 66 24 66 30 C 66 33 65 35 64 37 C 63 40 56 45 53 46 C 51 47 49 49 47 49 C 45 50 42 51 39 52 C 37 52 33 54 31 54 C 30 55 28 55 28 55 C 27 55 25 52 25 49 C 26 46 31 33 33 31 C 34 31 35 30 36 28 C 39 21 54 17 60 21 z" fill="black"/><!-- width=86 height=107 -->
<path id="gl2304" d="M 29 28 C 26 29 25 36 28 38 C 29 40 29 40 33 40 C 37 39 39 41 39 45 C 39 48 37 67 37 75 C 36 79 36 85 36 88 C 35 92 34 95 34 96 C 34 97 33 105 32 114 C 31 120 32 121 38 121 C 43 121 46 120 47 117 C 47 116 47 111 47 106 C 48 98 48 97 49 89 C 51 84 52 78 52 76 C 52 73 54 69 54 67 C 55 65 57 62 57 61 C 57 60 58 58 59 57 C 60 55 61 53 62 52 C 63 51 63 49 64 49 C 64 49 66 48 67 46 C 69 43 76 42 81 43 C 85 43 86 43 87 36 C 88 30 87 28 84 28 C 81 27 72 28 70 30 C 69 30 67 31 66 33 C 64 34 63 35 62 36 C 61 37 60 39 60 39 C 59 40 58 42 57 44 C 57 46 55 48 54 49 C 53 50 52 52 51 54 C 49 58 49 58 48 54 C 48 51 48 51 49 48 C 50 46 51 45 51 43 C 51 41 51 39 51 37 C 53 28 53 28 40 28 C 34 28 30 28 29 28 z" fill="black"/><!-- width=98 height=127 -->
</defs>
<use xlink:href="#gl4352" x="0" y="12"/>
<use xlink:href="#gl1794" x="128" y="41"/>
<use xlink:href="#gl4353" x="214" y="42"/>
<use xlink:href="#gl1793" x="393" y="18"/>
<use xlink:href="#gl3338" x="456" y="2"/>
<use xlink:href="#gl1538" x="555" y="39"/>
<use xlink:href="#gl3328" x="670" y="0"/>
<use xlink:href="#gl1538" x="843" y="39"/>
<use xlink:href="#gl2561" x="928" y="41"/>
<use xlink:href="#gl1793" x="997" y="18"/>
<use xlink:href="#gl3328" x="1097" y="0"/>
<use xlink:href="#gl2048" x="1268" y="45"/>
<use xlink:href="#gl2561" x="1365" y="41"/>
<use xlink:href="#gl3328" x="1472" y="0"/>
<use xlink:href="#gl1794" x="1644" y="41"/>
<use xlink:href="#gl2307" x="1729" y="33"/>
<use xlink:href="#gl4352" x="2957" y="12"/>
<use xlink:href="#gl1794" x="3084" y="41"/>
<use xlink:href="#gl4353" x="3171" y="42"/>
<use xlink:href="#gl1793" x="3349" y="18"/>
<use xlink:href="#gl1794" x="3416" y="41"/>
<use xlink:href="#gl4354" x="3552" y="16"/>
<use xlink:href="#gl2048" x="3706" y="45"/>
<use xlink:href="#gl3594" x="3793" y="2"/>
<use xlink:href="#gl1538" x="3886" y="39"/>
<use xlink:href="#gl2048" x="4018" y="45"/>
<use xlink:href="#gl4354" x="4161" y="16"/>
<use xlink:href="#gl1794" x="4313" y="41"/>
<use xlink:href="#gl2307" x="4393" y="33"/>
<use xlink:href="#gl2561" x="4499" y="41"/>
<use xlink:href="#gl1793" x="4564" y="18"/>
<use xlink:href="#gl1538" x="4630" y="39"/>
<use xlink:href="#gl2304" x="4695" y="18"/>
</svg>
