<?xml version='1.0' encoding='utf-8'?>
<svg xmlns="http://www.w3.org/2000/svg" xmlns:xlink="http://www.w3.org/1999/xlink" width="354px" height="20px" viewBox="0 0 3547 209" version="1.1">
<defs>
<path id="gl3587" d="M 64 2 C 61 3 61 3 60 8 C 59 10 58 13 57 14 C 57 15 55 17 55 19 C 54 21 53 23 52 24 C 51 25 50 28 49 30 C 49 32 48 34 47 36 C 46 36 45 39 45 40 C 45 42 43 44 43 45 C 42 46 41 49 40 51 C 40 52 39 55 38 57 C 37 58 36 60 36 61 C 36 63 34 65 33 66 C 33 67 31 70 31 72 C 30 73 29 76 28 76 C 27 78 26 81 25 82 C 25 85 24 87 24 88 C 22 88 22 91 21 93 C 21 94 19 97 18 99 C 18 101 16 103 16 105 C 15 108 12 111 7 111 C 3 111 1 112 1 117 C 1 123 1 123 21 123 C 42 123 41 123 41 117 C 41 112 40 111 32 111 C 31 111 30 111 29 110 C 29 109 29 108 30 108 C 30 103 32 98 34 95 C 35 93 36 91 36 91 C 36 90 37 88 38 86 C 39 84 40 81 40 80 C 41 77 42 75 43 75 C 43 75 53 74 64 74 C 82 74 83 74 84 75 C 86 76 88 83 88 90 C 89 92 90 96 91 99 C 94 108 93 111 88 111 C 84 111 83 112 83 117 C 82 123 82 123 103 123 C 123 123 123 123 123 117 C 123 113 121 111 118 111 C 110 111 109 110 108 104 C 107 102 106 99 105 97 C 105 95 103 91 103 89 C 103 86 102 83 101 81 C 100 80 99 76 99 72 C 98 69 97 64 96 63 C 95 61 94 57 93 55 C 93 52 92 48 91 45 C 90 43 89 38 88 36 C 88 33 87 30 86 28 C 85 27 84 22 84 19 C 83 15 82 12 81 10 C 81 9 80 7 80 6 C 79 1 78 1 72 1 C 69 1 65 1 64 2 M 71 22 C 72 24 75 34 75 37 C 75 37 76 40 76 42 C 78 45 81 58 81 61 C 81 63 78 64 65 64 C 58 64 51 63 51 63 C 49 61 50 54 52 51 C 54 51 54 48 55 46 C 56 45 57 42 57 41 C 58 40 59 37 60 35 C 60 33 61 30 62 29 C 63 28 64 26 64 24 C 66 19 66 18 68 19 C 69 19 70 21 71 22 z" fill="black"/><!-- width=131 height=144 -->
<path id="gl3588" d="M 41 3 C 40 4 37 4 36 5 C 35 6 33 7 31 7 C 28 8 24 10 22 13 C 21 14 20 15 19 16 C 18 18 16 19 16 21 C 16 21 15 24 13 25 C 12 28 12 28 12 36 C 12 41 12 43 13 45 C 13 45 14 47 15 48 C 17 53 24 60 29 61 C 30 61 32 62 34 63 C 35 64 38 65 40 66 C 43 66 45 67 46 68 C 48 69 51 70 53 70 C 55 71 57 72 58 73 C 58 73 60 74 61 75 C 65 76 69 82 69 85 C 70 90 69 95 68 97 C 67 98 66 100 66 101 C 64 102 63 103 63 104 C 61 105 60 106 60 106 C 55 111 41 112 27 110 C 16 109 16 109 16 100 C 17 91 16 90 12 90 C 6 91 4 93 4 106 C 4 118 4 117 13 120 C 16 120 19 121 21 122 C 22 123 26 123 34 123 C 48 124 54 123 58 121 C 59 120 61 119 62 118 C 64 118 66 117 66 117 C 67 116 69 115 70 114 C 72 113 73 112 74 111 C 75 110 76 109 76 108 C 82 104 87 82 82 77 C 81 76 81 75 80 73 C 79 70 76 67 70 63 C 69 62 66 61 64 60 C 62 60 60 59 59 58 C 58 57 55 57 53 56 C 51 55 48 54 47 54 C 46 53 43 52 40 51 C 38 51 36 49 36 49 C 35 48 34 48 33 47 C 32 47 30 45 28 43 C 27 42 27 41 25 40 C 25 38 26 36 26 34 C 26 28 27 27 30 22 C 35 16 51 12 62 15 C 69 16 69 17 69 25 C 68 32 69 33 74 33 C 78 33 79 33 81 31 C 81 31 82 31 82 30 C 82 27 82 24 82 20 C 82 16 82 13 82 10 C 82 9 81 9 80 9 C 79 7 78 7 78 7 C 78 7 75 6 73 5 C 68 3 68 3 56 3 C 49 3 42 3 41 3 z" fill="black"/><!-- width=93 height=130 -->
<path id="gl1793" d="M 38 5 C 31 7 30 9 30 19 C 31 29 30 30 25 29 C 18 28 15 30 15 34 C 15 39 17 40 23 39 C 31 39 31 39 30 49 C 30 54 30 58 30 59 C 30 60 29 64 29 67 C 28 70 28 75 28 77 C 27 78 27 81 27 81 C 27 82 27 84 27 86 C 25 88 25 91 25 97 C 25 106 25 106 27 108 C 28 109 29 112 30 113 C 30 114 31 115 32 117 C 33 117 35 118 36 119 C 37 120 39 120 46 120 C 58 120 59 120 64 117 C 68 113 69 111 67 105 C 66 102 66 102 64 103 C 63 105 62 105 61 105 C 61 105 58 106 55 107 C 48 109 44 109 40 105 C 39 104 39 96 40 86 C 40 82 40 79 40 78 C 40 77 40 75 40 72 C 42 66 43 58 43 51 C 43 44 44 40 45 39 C 46 39 50 39 56 40 C 67 41 68 41 70 36 C 72 33 72 31 70 30 C 67 28 68 28 51 29 C 43 30 42 28 43 24 C 43 23 44 19 45 15 C 45 12 45 9 45 9 C 46 8 45 6 43 5 C 42 4 42 4 38 5 z" fill="black"/><!-- width=80 height=127 -->
<path id="gl2304" d="M 29 28 C 26 29 25 36 28 38 C 29 40 29 40 33 40 C 37 39 39 41 39 45 C 39 48 37 67 37 75 C 36 79 36 85 36 88 C 35 92 34 95 34 96 C 34 97 33 105 32 114 C 31 120 32 121 38 121 C 43 121 46 120 47 117 C 47 116 47 111 47 106 C 48 98 48 97 49 89 C 51 84 52 78 52 76 C 52 73 54 69 54 67 C 55 65 57 62 57 61 C 57 60 58 58 59 57 C 60 55 61 53 62 52 C 63 51 63 49 64 49 C 64 49 66 48 67 46 C 69 43 76 42 81 43 C 85 43 86 43 87 36 C 88 30 87 28 84 28 C 81 27 72 28 70 30 C 69 30 67 31 66 33 C 64 34 63 35 62 36 C 61 37 60 39 60 39 C 59 40 58 42 57 44 C 57 46 55 48 54 49 C 53 50 52 52 51 54 C 49 58 49 58 48 54 C 48 51 48 51 49 48 C 50 46 51 45 51 43 C 51 41 51 39 51 37 C 53 28 53 28 40 28 C 34 28 30 28 29 28 z" fill="black"/><!-- width=98 height=127 -->
<path id="gl1538" d="M 45 9 C 43 9 42 10 40 10 C 39 11 37 12 36 13 C 34 13 32 15 31 16 C 31 16 30 18 28 18 C 28 19 27 20 26 21 C 25 22 24 24 24 25 C 21 28 17 36 16 39 C 16 40 16 42 15 43 C 15 44 15 46 15 47 C 15 48 14 51 13 52 C 11 58 14 82 18 87 C 18 87 20 89 21 91 C 22 93 24 94 27 96 C 29 97 32 98 33 99 C 36 100 57 100 61 98 C 63 97 66 96 68 96 C 72 94 73 93 73 87 C 75 81 73 79 67 82 C 66 82 66 82 66 82 C 66 84 62 85 58 85 C 57 86 55 87 54 87 C 52 88 43 88 42 88 C 41 87 39 87 37 86 C 28 83 23 71 27 64 C 28 62 30 62 36 62 C 43 62 47 61 52 59 C 54 58 56 57 57 57 C 63 55 73 46 76 40 C 79 34 79 34 79 28 C 79 23 79 22 78 21 C 77 19 75 18 75 16 C 73 15 72 13 70 13 C 69 12 67 11 66 10 C 64 9 51 8 45 9 M 60 21 C 65 24 66 24 66 30 C 66 33 65 35 64 37 C 63 40 56 45 53 46 C 51 47 49 49 47 49 C 45 50 42 51 39 52 C 37 52 33 54 31 54 C 30 55 28 55 28 55 C 27 55 25 52 25 49 C 26 46 31 33 33 31 C 34 31 35 30 36 28 C 39 21 54 17 60 21 z" fill="black"/><!-- width=86 height=107 -->
<path id="gl1538" d="M 45 9 C 43 9 42 10 40 10 C 39 11 37 12 36 13 C 34 13 32 15 31 16 C 31 16 30 18 28 18 C 28 19 27 20 26 21 C 25 22 24 24 24 25 C 21 28 17 36 16 39 C 16 40 16 42 15 43 C 15 44 15 46 15 47 C 15 48 14 51 13 52 C 11 58 14 82 18 87 C 18 87 20 89 21 91 C 22 93 24 94 27 96 C 29 97 32 98 33 99 C 36 100 57 100 61 98 C 63 97 66 96 68 96 C 72 94 73 93 73 87 C 75 81 73 79 67 82 C 66 82 66 82 66 82 C 66 84 62 85 58 85 C 57 86 55 87 54 87 C 52 88 43 88 42 88 C 41 87 39 87 37 86 C 28 83 23 71 27 64 C 28 62 30 62 36 62 C 43 62 47 61 52 59 C 54 58 56 57 57 57 C 63 55 73 46 76 40 C 79 34 79 34 79 28 C 79 23 79 22 78 21 C 77 19 75 18 75 16 C 73 15 72 13 70 13 C 69 12 67 11 66 10 C 64 9 51 8 45 9 M 60 21 C 65 24 66 24 66 30 C 66 33 65 35 64 37 C 63 40 56 45 53 46 C 51 47 49 49 47 49 C 45 50 42 51 39 52 C 37 52 33 54 31 54 C 30 55 28 55 28 55 C 27 55 25 52 25 49 C 26 46 31 33 33 31 C 34 31 35 30 36 28 C 39 21 54 17 60 21 z" fill="black"/><!-- width=86 height=107 -->
<path id="gl1793" d="M 38 5 C 31 7 30 9 30 19 C 31 29 30 30 25 29 C 18 28 15 30 15 34 C 15 39 17 40 23 39 C 31 39 31 39 30 49 C 30 54 30 58 30 59 C 30 60 29 64 29 67 C 28 70 28 75 28 77 C 27 78 27 81 27 81 C 27 82 27 84 27 86 C 25 88 25 91 25 97 C 25 106 25 106 27 108 C 28 109 29 112 30 113 C 30 114 31 115 32 117 C 33 117 35 118 36 119 C 37 120 39 120 46 120 C 58 120 59 120 64 117 C 68 113 69 111 67 105 C 66 102 66 102 64 103 C 63 105 62 105 61 105 C 61 105 58 106 55 107 C 48 109 44 109 40 105 C 39 104 39 96 40 86 C 40 82 40 79 40 78 C 40 77 40 75 40 72 C 42 66 43 58 43 51 C 43 44 44 40 45 39 C 46 39 50 39 56 40 C 67 41 68 41 70 36 C 72 33 72 31 70 30 C 67 28 68 28 51 29 C 43 30 42 28 43 24 C 43 23 44 19 45 15 C 45 12 45 9 45 9 C 46 8 45 6 43 5 C 42 4 42 4 38 5 z" fill="black"/><!-- width=80 height=127 -->
<path id="gl3589" d="M 48 9 C 46 9 45 10 44 10 C 43 11 41 12 39 13 C 37 13 35 15 33 16 C 30 19 30 20 27 22 C 25 24 24 26 24 27 C 23 28 22 31 21 32 C 20 33 19 36 18 40 C 18 43 17 48 16 51 C 14 58 15 69 18 75 C 18 76 19 78 19 80 C 19 82 21 84 22 85 C 22 87 24 88 24 88 C 24 89 28 94 31 95 C 32 96 34 97 34 97 C 37 101 58 101 65 97 C 67 97 69 96 70 96 C 72 95 73 94 73 90 C 74 83 72 79 69 82 C 67 84 54 88 51 88 C 43 88 36 84 33 78 C 32 76 31 74 30 73 C 28 69 28 45 31 40 C 32 39 33 37 33 35 C 34 31 41 24 47 21 C 59 16 66 18 64 28 C 64 33 67 35 72 34 C 76 34 77 33 77 25 C 78 9 78 9 62 9 C 55 9 49 9 48 9 z" fill="black"/><!-- width=84 height=107 -->
<path id="gl2048" d="M 46 2 C 44 3 41 3 40 4 C 39 5 36 6 35 7 C 34 7 32 8 31 9 C 30 10 28 11 27 12 C 26 12 24 13 24 15 C 23 16 22 18 21 18 C 21 19 19 21 18 22 C 18 24 16 27 16 27 C 15 28 15 30 13 37 C 12 40 12 43 10 45 C 8 52 9 74 12 78 C 12 78 13 80 13 81 C 15 86 15 87 22 91 C 28 94 37 94 42 91 C 43 90 45 88 45 88 C 46 88 51 84 52 81 C 54 79 54 78 55 78 C 55 78 56 76 57 75 C 57 73 58 71 60 70 C 61 68 62 66 63 64 C 63 62 63 60 64 60 C 64 59 64 58 64 58 C 65 58 65 60 66 60 C 67 63 66 73 65 76 C 64 78 63 82 62 90 C 61 94 63 94 74 94 C 86 94 87 94 88 90 C 88 89 89 87 89 87 C 89 87 85 83 84 82 C 84 82 82 82 81 82 C 75 83 75 82 76 63 C 76 57 76 51 76 48 C 76 45 77 42 78 40 C 78 39 78 36 78 33 C 78 31 79 28 79 27 C 80 26 81 21 81 13 C 82 7 81 6 76 5 C 75 4 72 4 69 3 C 66 2 51 1 46 2 M 64 13 C 69 15 69 23 64 35 C 64 38 63 42 62 44 C 61 46 60 49 60 51 C 59 52 58 55 57 57 C 57 59 55 61 55 62 C 54 63 53 65 52 66 C 51 70 42 79 38 80 C 31 82 27 80 24 75 C 22 70 23 42 26 37 C 27 36 28 33 28 31 C 29 28 30 26 36 21 C 39 17 43 15 51 13 C 54 12 63 12 64 13 z" fill="black"/><!-- width=98 height=101 -->
<path id="gl2304" d="M 29 28 C 26 29 25 36 28 38 C 29 40 29 40 33 40 C 37 39 39 41 39 45 C 39 48 37 67 37 75 C 36 79 36 85 36 88 C 35 92 34 95 34 96 C 34 97 33 105 32 114 C 31 120 32 121 38 121 C 43 121 46 120 47 117 C 47 116 47 111 47 106 C 48 98 48 97 49 89 C 51 84 52 78 52 76 C 52 73 54 69 54 67 C 55 65 57 62 57 61 C 57 60 58 58 59 57 C 60 55 61 53 62 52 C 63 51 63 49 64 49 C 64 49 66 48 67 46 C 69 43 76 42 81 43 C 85 43 86 43 87 36 C 88 30 87 28 84 28 C 81 27 72 28 70 30 C 69 30 67 31 66 33 C 64 34 63 35 62 36 C 61 37 60 39 60 39 C 59 40 58 42 57 44 C 57 46 55 48 54 49 C 53 50 52 52 51 54 C 49 58 49 58 48 54 C 48 51 48 51 49 48 C 50 46 51 45 51 43 C 51 41 51 39 51 37 C 53 28 53 28 40 28 C 34 28 30 28 29 28 z" fill="black"/><!-- width=98 height=127 -->
<path id="gl4355" d="M 18 10 C 14 11 13 16 16 19 C 17 21 18 21 22 21 C 27 21 27 21 28 22 C 30 25 28 43 27 48 C 27 49 26 52 25 55 C 25 59 25 63 25 66 C 24 67 24 76 23 84 C 22 115 21 120 14 118 C 10 118 9 120 9 125 C 9 131 9 130 28 130 C 47 130 48 130 48 126 C 48 121 45 118 39 118 C 34 119 34 118 34 109 C 34 102 34 96 36 84 C 37 81 37 78 37 77 C 37 76 37 75 37 73 C 37 71 38 63 38 54 C 39 39 39 36 41 36 C 42 36 43 38 44 40 C 45 41 46 44 50 50 C 51 52 52 54 53 55 C 54 57 54 58 55 60 C 56 61 57 63 58 64 C 58 65 59 67 60 67 C 61 68 61 70 62 71 C 63 72 64 74 65 75 C 66 76 67 79 67 80 C 67 81 68 82 69 83 C 69 84 70 85 71 87 C 72 88 73 90 74 91 C 75 92 76 94 76 96 C 77 97 78 99 79 99 C 80 100 81 102 82 103 C 82 104 83 106 84 108 C 85 109 86 111 87 112 C 88 114 88 115 88 115 C 89 115 90 117 91 119 C 91 121 93 123 94 124 C 94 124 95 126 96 127 C 97 130 98 131 104 130 C 110 130 111 129 111 124 C 110 120 111 96 112 92 C 113 89 114 79 115 74 C 115 72 115 66 116 60 C 116 53 117 45 117 40 C 117 36 118 31 118 30 C 118 24 120 21 125 21 C 129 21 130 20 130 15 C 131 9 131 9 112 9 C 92 9 91 9 91 15 C 92 19 95 21 100 21 C 104 21 105 21 105 22 C 106 25 105 44 103 52 C 103 54 102 58 102 61 C 102 63 102 66 102 67 C 102 69 102 75 101 82 C 101 102 100 109 97 103 C 96 102 95 100 94 99 C 93 98 91 95 90 93 C 90 91 89 90 88 90 C 88 90 87 88 86 85 C 84 80 80 74 79 73 C 78 72 77 70 76 69 C 76 67 75 66 75 64 C 74 64 73 62 72 61 C 72 60 71 58 70 57 C 69 57 69 55 67 53 C 67 51 66 49 64 49 C 64 48 63 46 62 45 C 62 43 61 42 60 40 C 57 37 55 34 54 31 C 52 28 51 27 51 26 C 49 25 49 24 48 22 C 48 21 47 19 46 18 C 45 17 45 15 44 13 C 42 9 42 9 30 9 C 24 9 19 9 18 10 z" fill="black"/><!-- width=137 height=137 -->
<path id="gl2048" d="M 46 2 C 44 3 41 3 40 4 C 39 5 36 6 35 7 C 34 7 32 8 31 9 C 30 10 28 11 27 12 C 26 12 24 13 24 15 C 23 16 22 18 21 18 C 21 19 19 21 18 22 C 18 24 16 27 16 27 C 15 28 15 30 13 37 C 12 40 12 43 10 45 C 8 52 9 74 12 78 C 12 78 13 80 13 81 C 15 86 15 87 22 91 C 28 94 37 94 42 91 C 43 90 45 88 45 88 C 46 88 51 84 52 81 C 54 79 54 78 55 78 C 55 78 56 76 57 75 C 57 73 58 71 60 70 C 61 68 62 66 63 64 C 63 62 63 60 64 60 C 64 59 64 58 64 58 C 65 58 65 60 66 60 C 67 63 66 73 65 76 C 64 78 63 82 62 90 C 61 94 63 94 74 94 C 86 94 87 94 88 90 C 88 89 89 87 89 87 C 89 87 85 83 84 82 C 84 82 82 82 81 82 C 75 83 75 82 76 63 C 76 57 76 51 76 48 C 76 45 77 42 78 40 C 78 39 78 36 78 33 C 78 31 79 28 79 27 C 80 26 81 21 81 13 C 82 7 81 6 76 5 C 75 4 72 4 69 3 C 66 2 51 1 46 2 M 64 13 C 69 15 69 23 64 35 C 64 38 63 42 62 44 C 61 46 60 49 60 51 C 59 52 58 55 57 57 C 57 59 55 61 55 62 C 54 63 53 65 52 66 C 51 70 42 79 38 80 C 31 82 27 80 24 75 C 22 70 23 42 26 37 C 27 36 28 33 28 31 C 29 28 30 26 36 21 C 39 17 43 15 51 13 C 54 12 63 12 64 13 z" fill="black"/><!-- width=98 height=101 -->
<path id="gl3840" d="M 12 16 C 10 18 10 24 12 26 C 13 27 13 27 18 27 C 21 27 23 28 24 28 C 25 30 25 36 25 39 C 24 41 24 45 24 48 C 23 51 22 55 22 56 C 22 57 21 63 21 69 C 20 82 19 87 18 94 C 14 108 15 108 24 108 C 31 108 31 108 31 103 C 31 100 32 97 33 94 C 34 91 34 85 35 81 C 36 77 37 73 37 70 C 39 68 40 64 40 62 C 41 60 42 57 43 56 C 43 55 45 53 45 52 C 45 51 46 49 48 47 C 49 46 50 45 50 44 C 50 43 52 40 57 34 C 62 28 70 28 73 32 C 75 34 75 48 75 55 C 74 57 73 64 73 69 C 72 74 71 81 71 83 C 69 89 67 104 68 106 C 69 108 70 108 75 108 C 83 108 84 107 84 96 C 84 92 84 88 85 85 C 86 82 87 79 87 76 C 89 68 90 67 91 64 C 91 62 93 58 93 57 C 94 55 94 53 96 52 C 96 51 97 49 98 48 C 99 46 100 45 100 45 C 101 44 102 42 103 41 C 105 37 112 31 114 30 C 115 30 117 30 118 29 C 120 27 126 31 126 35 C 127 40 126 63 124 64 C 124 66 123 71 122 83 C 121 88 121 93 121 94 C 120 95 120 97 120 99 C 120 100 120 102 118 103 C 117 107 120 108 134 108 C 147 108 147 108 147 103 C 148 98 145 96 141 96 C 135 97 134 93 138 66 C 139 62 139 57 139 56 C 139 55 139 52 140 49 C 142 42 141 31 138 25 C 137 23 136 21 135 20 C 134 20 133 19 132 18 C 128 15 116 15 113 18 C 112 19 110 20 109 21 C 106 21 100 28 97 32 C 96 35 94 37 92 42 C 91 43 91 45 90 44 C 89 44 88 38 87 34 C 87 25 82 18 75 16 C 71 15 66 16 63 18 C 61 18 60 20 58 21 C 57 21 55 22 55 22 C 55 23 54 24 48 31 C 46 32 45 34 45 34 C 45 35 44 37 43 38 C 42 39 41 42 40 43 C 40 46 38 49 37 48 C 34 46 35 37 39 23 C 39 22 40 20 40 18 C 40 18 39 18 39 17 C 37 15 14 15 12 16 z" fill="black"/><!-- width=158 height=115 -->
<path id="gl1538" d="M 45 9 C 43 9 42 10 40 10 C 39 11 37 12 36 13 C 34 13 32 15 31 16 C 31 16 30 18 28 18 C 28 19 27 20 26 21 C 25 22 24 24 24 25 C 21 28 17 36 16 39 C 16 40 16 42 15 43 C 15 44 15 46 15 47 C 15 48 14 51 13 52 C 11 58 14 82 18 87 C 18 87 20 89 21 91 C 22 93 24 94 27 96 C 29 97 32 98 33 99 C 36 100 57 100 61 98 C 63 97 66 96 68 96 C 72 94 73 93 73 87 C 75 81 73 79 67 82 C 66 82 66 82 66 82 C 66 84 62 85 58 85 C 57 86 55 87 54 87 C 52 88 43 88 42 88 C 41 87 39 87 37 86 C 28 83 23 71 27 64 C 28 62 30 62 36 62 C 43 62 47 61 52 59 C 54 58 56 57 57 57 C 63 55 73 46 76 40 C 79 34 79 34 79 28 C 79 23 79 22 78 21 C 77 19 75 18 75 16 C 73 15 72 13 70 13 C 69 12 67 11 66 10 C 64 9 51 8 45 9 M 60 21 C 65 24 66 24 66 30 C 66 33 65 35 64 37 C 63 40 56 45 53 46 C 51 47 49 49 47 49 C 45 50 42 51 39 52 C 37 52 33 54 31 54 C 30 55 28 55 28 55 C 27 55 25 52 25 49 C 26 46 31 33 33 31 C 34 31 35 30 36 28 C 39 21 54 17 60 21 z" fill="black"/><!-- width=86 height=107 -->
<path id="gl3333" d="M 49 2 C 46 3 46 4 46 7 C 46 12 49 13 56 13 C 58 13 61 13 61 14 C 63 15 63 28 61 30 C 61 31 61 34 61 38 C 61 46 61 46 50 45 C 38 45 34 45 28 48 C 25 50 23 51 23 52 C 22 52 21 54 19 55 C 18 55 17 57 17 57 C 17 57 15 59 14 61 C 12 64 11 66 11 66 C 11 66 10 68 9 70 C 9 72 7 75 7 76 C 7 78 6 82 5 85 C 3 93 2 110 4 116 C 6 126 7 129 11 132 C 15 136 17 136 21 137 C 33 139 42 131 50 114 C 52 109 53 109 55 111 C 56 114 56 121 54 131 C 53 136 53 137 66 137 C 79 138 80 138 80 132 C 80 126 79 126 73 126 C 71 126 69 125 69 124 C 68 123 67 120 67 118 C 68 118 69 109 70 94 C 70 87 70 80 71 78 C 71 75 72 71 72 70 C 72 68 72 65 72 63 C 73 61 73 55 74 49 C 75 27 76 13 78 7 C 79 4 79 3 76 2 C 73 1 51 1 49 2 M 58 57 C 60 60 60 68 57 73 C 57 75 55 78 55 80 C 54 85 54 88 52 91 C 52 92 51 94 50 96 C 49 98 48 100 48 102 C 47 102 46 104 46 105 C 45 107 44 109 43 110 C 43 111 42 112 41 114 C 38 118 31 123 26 124 C 23 124 19 121 17 118 C 14 112 16 88 19 79 C 21 76 22 73 22 72 C 23 69 31 61 34 60 C 36 59 39 58 40 57 C 44 55 55 55 58 57 M 58 106 C 57 108 56 106 57 105 C 57 103 57 103 58 104 C 58 105 58 106 58 106 z" fill="black"/><!-- width=93 height=159 -->
<path id="gl4357" d="M 18 7 C 14 7 12 12 13 16 C 15 18 16 19 22 18 C 24 18 27 18 27 19 C 28 20 28 24 28 27 C 27 34 26 44 25 47 C 25 49 25 52 25 54 C 24 56 24 63 23 70 C 23 76 22 84 22 88 C 22 91 21 97 21 101 C 21 109 19 115 18 116 C 17 117 15 117 14 117 C 10 116 9 117 8 122 C 7 123 7 124 7 126 C 7 126 8 126 9 127 C 10 128 10 128 38 128 C 67 128 71 127 75 126 C 76 125 79 124 82 123 C 84 123 87 122 87 121 C 87 121 89 120 90 119 C 95 117 109 102 111 98 C 111 97 112 95 113 94 C 114 93 115 90 115 88 C 115 87 115 84 116 83 C 120 73 121 46 117 39 C 117 38 115 36 115 33 C 114 31 114 30 112 28 C 112 28 111 27 111 25 C 109 24 103 16 102 16 C 102 16 100 16 99 15 C 98 14 96 13 94 12 C 92 12 89 10 87 10 C 85 9 82 8 80 8 C 76 7 22 7 18 7 M 72 19 C 78 20 86 22 88 24 C 89 25 90 25 91 26 C 92 27 94 28 94 28 C 95 30 96 31 97 32 C 99 33 100 36 100 37 C 102 40 102 42 103 43 C 105 46 106 66 103 73 C 103 76 102 80 101 83 C 100 87 99 90 98 91 C 97 93 96 94 96 96 C 96 96 94 98 93 99 C 92 100 90 102 90 102 C 87 106 83 109 82 109 C 82 109 80 109 78 111 C 76 112 74 113 70 114 C 67 114 64 115 63 115 C 61 117 36 117 34 117 C 33 115 34 102 35 98 C 36 97 36 94 36 91 C 36 89 36 86 37 85 C 37 83 38 76 38 68 C 39 60 39 52 40 48 C 40 45 40 40 40 37 C 41 27 42 21 43 19 C 45 18 65 18 72 19 z" fill="black"/><!-- width=127 height=135 -->
<path id="gl1538" d="M 45 9 C 43 9 42 10 40 10 C 39 11 37 12 36 13 C 34 13 32 15 31 16 C 31 16 30 18 28 18 C 28 19 27 20 26 21 C 25 22 24 24 24 25 C 21 28 17 36 16 39 C 16 40 16 42 15 43 C 15 44 15 46 15 47 C 15 48 14 51 13 52 C 11 58 14 82 18 87 C 18 87 20 89 21 91 C 22 93 24 94 27 96 C 29 97 32 98 33 99 C 36 100 57 100 61 98 C 63 97 66 96 68 96 C 72 94 73 93 73 87 C 75 81 73 79 67 82 C 66 82 66 82 66 82 C 66 84 62 85 58 85 C 57 86 55 87 54 87 C 52 88 43 88 42 88 C 41 87 39 87 37 86 C 28 83 23 71 27 64 C 28 62 30 62 36 62 C 43 62 47 61 52 59 C 54 58 56 57 57 57 C 63 55 73 46 76 40 C 79 34 79 34 79 28 C 79 23 79 22 78 21 C 77 19 75 18 75 16 C 73 15 72 13 70 13 C 69 12 67 11 66 10 C 64 9 51 8 45 9 M 60 21 C 65 24 66 24 66 30 C 66 33 65 35 64 37 C 63 40 56 45 53 46 C 51 47 49 49 47 49 C 45 50 42 51 39 52 C 37 52 33 54 31 54 C 30 55 28 55 28 55 C 27 55 25 52 25 49 C 26 46 31 33 33 31 C 34 31 35 30 36 28 C 39 21 54 17 60 21 z" fill="black"/><!-- width=86 height=107 -->
<path id="gl2561" d="M 30 7 C 28 7 25 8 24 9 C 22 10 21 11 20 11 C 18 12 13 16 12 19 C 12 20 10 22 10 22 C 7 24 7 36 9 40 C 11 43 16 49 19 49 C 20 50 22 51 24 52 C 25 52 27 54 29 54 C 31 55 33 56 34 57 C 36 57 37 58 39 59 C 43 60 46 60 46 61 C 46 61 47 62 48 63 C 52 65 54 72 51 78 C 48 85 34 89 24 86 C 18 84 17 83 18 76 C 18 70 17 69 13 69 C 7 69 6 71 6 81 C 6 84 6 87 5 88 C 4 91 5 91 10 94 C 21 99 43 99 49 95 C 49 94 51 94 52 93 C 55 91 60 87 61 85 C 61 84 62 83 63 82 C 66 79 66 64 63 61 C 63 60 61 58 61 57 C 60 56 59 55 58 54 C 57 54 56 53 55 52 C 54 51 51 50 49 49 C 48 49 45 48 43 47 C 42 46 40 45 37 45 C 36 45 34 44 33 43 C 32 42 30 41 27 40 C 21 37 19 32 22 25 C 23 22 23 22 28 19 C 34 17 34 17 40 17 C 51 17 54 19 54 26 C 53 32 55 34 60 34 C 65 34 66 33 66 22 C 66 10 66 10 58 8 C 51 6 36 5 30 7 z" fill="black"/><!-- width=73 height=105 -->
<path id="gl2305" d="M 24 1 C 19 4 16 11 17 15 C 20 22 30 24 35 18 C 37 15 38 14 37 10 C 36 4 29 0 24 1 M 4 46 C 3 48 3 52 4 54 C 6 55 6 56 10 55 C 17 55 18 55 17 63 C 17 66 17 70 16 71 C 16 73 16 77 16 80 C 15 82 15 86 15 87 C 14 90 13 103 13 106 C 13 111 11 127 10 130 C 8 136 9 136 24 137 C 37 137 37 137 37 132 C 37 127 36 125 32 126 C 25 126 22 123 25 115 C 26 112 27 108 27 100 C 27 90 28 78 30 66 C 30 63 30 60 31 58 C 33 52 33 48 31 46 C 30 45 6 44 4 46 z" fill="black"/><!-- width=44 height=156 -->
<path id="gl2304" d="M 29 28 C 26 29 25 36 28 38 C 29 40 29 40 33 40 C 37 39 39 41 39 45 C 39 48 37 67 37 75 C 36 79 36 85 36 88 C 35 92 34 95 34 96 C 34 97 33 105 32 114 C 31 120 32 121 38 121 C 43 121 46 120 47 117 C 47 116 47 111 47 106 C 48 98 48 97 49 89 C 51 84 52 78 52 76 C 52 73 54 69 54 67 C 55 65 57 62 57 61 C 57 60 58 58 59 57 C 60 55 61 53 62 52 C 63 51 63 49 64 49 C 64 49 66 48 67 46 C 69 43 76 42 81 43 C 85 43 86 43 87 36 C 88 30 87 28 84 28 C 81 27 72 28 70 30 C 69 30 67 31 66 33 C 64 34 63 35 62 36 C 61 37 60 39 60 39 C 59 40 58 42 57 44 C 57 46 55 48 54 49 C 53 50 52 52 51 54 C 49 58 49 58 48 54 C 48 51 48 51 49 48 C 50 46 51 45 51 43 C 51 41 51 39 51 37 C 53 28 53 28 40 28 C 34 28 30 28 29 28 z" fill="black"/><!-- width=98 height=127 -->
<path id="gl1538" d="M 45 9 C 43 9 42 10 40 10 C 39 11 37 12 36 13 C 34 13 32 15 31 16 C 31 16 30 18 28 18 C 28 19 27 20 26 21 C 25 22 24 24 24 25 C 21 28 17 36 16 39 C 16 40 16 42 15 43 C 15 44 15 46 15 47 C 15 48 14 51 13 52 C 11 58 14 82 18 87 C 18 87 20 89 21 91 C 22 93 24 94 27 96 C 29 97 32 98 33 99 C 36 100 57 100 61 98 C 63 97 66 96 68 96 C 72 94 73 93 73 87 C 75 81 73 79 67 82 C 66 82 66 82 66 82 C 66 84 62 85 58 85 C 57 86 55 87 54 87 C 52 88 43 88 42 88 C 41 87 39 87 37 86 C 28 83 23 71 27 64 C 28 62 30 62 36 62 C 43 62 47 61 52 59 C 54 58 56 57 57 57 C 63 55 73 46 76 40 C 79 34 79 34 79 28 C 79 23 79 22 78 21 C 77 19 75 18 75 16 C 73 15 72 13 70 13 C 69 12 67 11 66 10 C 64 9 51 8 45 9 M 60 21 C 65 24 66 24 66 30 C 66 33 65 35 64 37 C 63 40 56 45 53 46 C 51 47 49 49 47 49 C 45 50 42 51 39 52 C 37 52 33 54 31 54 C 30 55 28 55 28 55 C 27 55 25 52 25 49 C 26 46 31 33 33 31 C 34 31 35 30 36 28 C 39 21 54 17 60 21 z" fill="black"/><!-- width=86 height=107 -->
<path id="gl3588" d="M 41 3 C 40 4 37 4 36 5 C 35 6 33 7 31 7 C 28 8 24 10 22 13 C 21 14 20 15 19 16 C 18 18 16 19 16 21 C 16 21 15 24 13 25 C 12 28 12 28 12 36 C 12 41 12 43 13 45 C 13 45 14 47 15 48 C 17 53 24 60 29 61 C 30 61 32 62 34 63 C 35 64 38 65 40 66 C 43 66 45 67 46 68 C 48 69 51 70 53 70 C 55 71 57 72 58 73 C 58 73 60 74 61 75 C 65 76 69 82 69 85 C 70 90 69 95 68 97 C 67 98 66 100 66 101 C 64 102 63 103 63 104 C 61 105 60 106 60 106 C 55 111 41 112 27 110 C 16 109 16 109 16 100 C 17 91 16 90 12 90 C 6 91 4 93 4 106 C 4 118 4 117 13 120 C 16 120 19 121 21 122 C 22 123 26 123 34 123 C 48 124 54 123 58 121 C 59 120 61 119 62 118 C 64 118 66 117 66 117 C 67 116 69 115 70 114 C 72 113 73 112 74 111 C 75 110 76 109 76 108 C 82 104 87 82 82 77 C 81 76 81 75 80 73 C 79 70 76 67 70 63 C 69 62 66 61 64 60 C 62 60 60 59 59 58 C 58 57 55 57 53 56 C 51 55 48 54 47 54 C 46 53 43 52 40 51 C 38 51 36 49 36 49 C 35 48 34 48 33 47 C 32 47 30 45 28 43 C 27 42 27 41 25 40 C 25 38 26 36 26 34 C 26 28 27 27 30 22 C 35 16 51 12 62 15 C 69 16 69 17 69 25 C 68 32 69 33 74 33 C 78 33 79 33 81 31 C 81 31 82 31 82 30 C 82 27 82 24 82 20 C 82 16 82 13 82 10 C 82 9 81 9 80 9 C 79 7 78 7 78 7 C 78 7 75 6 73 5 C 68 3 68 3 56 3 C 49 3 42 3 41 3 z" fill="black"/><!-- width=93 height=130 -->
<path id="gl1538" d="M 45 9 C 43 9 42 10 40 10 C 39 11 37 12 36 13 C 34 13 32 15 31 16 C 31 16 30 18 28 18 C 28 19 27 20 26 21 C 25 22 24 24 24 25 C 21 28 17 36 16 39 C 16 40 16 42 15 43 C 15 44 15 46 15 47 C 15 48 14 51 13 52 C 11 58 14 82 18 87 C 18 87 20 89 21 91 C 22 93 24 94 27 96 C 29 97 32 98 33 99 C 36 100 57 100 61 98 C 63 97 66 96 68 96 C 72 94 73 93 73 87 C 75 81 73 79 67 82 C 66 82 66 82 66 82 C 66 84 62 85 58 85 C 57 86 55 87 54 87 C 52 88 43 88 42 88 C 41 87 39 87 37 86 C 28 83 23 71 27 64 C 28 62 30 62 36 62 C 43 62 47 61 52 59 C 54 58 56 57 57 57 C 63 55 73 46 76 40 C 79 34 79 34 79 28 C 79 23 79 22 78 21 C 77 19 75 18 75 16 C 73 15 72 13 70 13 C 69 12 67 11 66 10 C 64 9 51 8 45 9 M 60 21 C 65 24 66 24 66 30 C 66 33 65 35 64 37 C 63 40 56 45 53 46 C 51 47 49 49 47 49 C 45 50 42 51 39 52 C 37 52 33 54 31 54 C 30 55 28 55 28 55 C 27 55 25 52 25 49 C 26 46 31 33 33 31 C 34 31 35 30 36 28 C 39 21 54 17 60 21 z" fill="black"/><!-- width=86 height=107 -->
<path id="gl4098" d="M 21 25 C 20 26 20 27 20 30 C 20 35 21 37 25 36 C 33 36 34 38 34 45 C 34 47 33 51 33 55 C 33 59 33 61 32 62 C 31 63 31 67 30 78 C 29 99 28 114 27 121 C 26 123 25 129 25 135 C 25 148 24 148 20 148 C 15 148 11 151 11 155 C 11 160 12 160 32 160 C 38 160 44 160 50 160 C 50 159 51 159 51 159 C 52 156 52 152 50 150 C 48 148 48 148 45 148 C 39 148 39 148 39 132 C 40 120 40 118 40 117 C 42 116 43 116 54 116 C 58 116 62 117 66 117 C 68 115 70 114 72 114 C 76 112 79 109 80 109 C 86 104 88 102 88 100 C 89 99 90 97 91 97 C 92 96 93 94 93 94 C 93 93 94 91 95 90 C 96 87 97 84 98 80 C 98 77 99 72 100 70 C 103 61 102 51 98 37 C 95 28 87 23 76 24 C 72 25 70 25 70 27 C 70 27 69 28 67 29 C 63 31 56 39 54 43 C 54 45 52 46 51 48 C 51 48 49 51 49 53 C 47 60 46 60 45 54 C 44 50 45 40 48 31 C 48 30 49 28 49 27 C 49 27 48 26 48 25 C 46 24 24 23 21 25 M 83 40 C 87 42 87 45 87 55 C 88 65 87 72 85 77 C 84 78 83 81 83 83 C 82 85 82 87 81 88 C 80 89 79 91 78 92 C 72 102 58 108 48 105 C 45 104 41 100 42 99 C 42 98 43 93 44 88 C 45 83 46 78 47 76 C 48 75 49 72 49 71 C 49 69 51 66 52 64 C 53 62 54 60 54 60 C 54 59 55 57 56 55 C 58 54 58 52 58 52 C 58 51 62 47 67 42 C 72 37 79 36 83 40 z" fill="black"/><!-- width=109 height=166 -->
<path id="gl2048" d="M 46 2 C 44 3 41 3 40 4 C 39 5 36 6 35 7 C 34 7 32 8 31 9 C 30 10 28 11 27 12 C 26 12 24 13 24 15 C 23 16 22 18 21 18 C 21 19 19 21 18 22 C 18 24 16 27 16 27 C 15 28 15 30 13 37 C 12 40 12 43 10 45 C 8 52 9 74 12 78 C 12 78 13 80 13 81 C 15 86 15 87 22 91 C 28 94 37 94 42 91 C 43 90 45 88 45 88 C 46 88 51 84 52 81 C 54 79 54 78 55 78 C 55 78 56 76 57 75 C 57 73 58 71 60 70 C 61 68 62 66 63 64 C 63 62 63 60 64 60 C 64 59 64 58 64 58 C 65 58 65 60 66 60 C 67 63 66 73 65 76 C 64 78 63 82 62 90 C 61 94 63 94 74 94 C 86 94 87 94 88 90 C 88 89 89 87 89 87 C 89 87 85 83 84 82 C 84 82 82 82 81 82 C 75 83 75 82 76 63 C 76 57 76 51 76 48 C 76 45 77 42 78 40 C 78 39 78 36 78 33 C 78 31 79 28 79 27 C 80 26 81 21 81 13 C 82 7 81 6 76 5 C 75 4 72 4 69 3 C 66 2 51 1 46 2 M 64 13 C 69 15 69 23 64 35 C 64 38 63 42 62 44 C 61 46 60 49 60 51 C 59 52 58 55 57 57 C 57 59 55 61 55 62 C 54 63 53 65 52 66 C 51 70 42 79 38 80 C 31 82 27 80 24 75 C 22 70 23 42 26 37 C 27 36 28 33 28 31 C 29 28 30 26 36 21 C 39 17 43 15 51 13 C 54 12 63 12 64 13 z" fill="black"/><!-- width=98 height=101 -->
<path id="gl2304" d="M 29 28 C 26 29 25 36 28 38 C 29 40 29 40 33 40 C 37 39 39 41 39 45 C 39 48 37 67 37 75 C 36 79 36 85 36 88 C 35 92 34 95 34 96 C 34 97 33 105 32 114 C 31 120 32 121 38 121 C 43 121 46 120 47 117 C 47 116 47 111 47 106 C 48 98 48 97 49 89 C 51 84 52 78 52 76 C 52 73 54 69 54 67 C 55 65 57 62 57 61 C 57 60 58 58 59 57 C 60 55 61 53 62 52 C 63 51 63 49 64 49 C 64 49 66 48 67 46 C 69 43 76 42 81 43 C 85 43 86 43 87 36 C 88 30 87 28 84 28 C 81 27 72 28 70 30 C 69 30 67 31 66 33 C 64 34 63 35 62 36 C 61 37 60 39 60 39 C 59 40 58 42 57 44 C 57 46 55 48 54 49 C 53 50 52 52 51 54 C 49 58 49 58 48 54 C 48 51 48 51 49 48 C 50 46 51 45 51 43 C 51 41 51 39 51 37 C 53 28 53 28 40 28 C 34 28 30 28 29 28 z" fill="black"/><!-- width=98 height=127 -->
<path id="gl2048" d="M 46 2 C 44 3 41 3 40 4 C 39 5 36 6 35 7 C 34 7 32 8 31 9 C 30 10 28 11 27 12 C 26 12 24 13 24 15 C 23 16 22 18 21 18 C 21 19 19 21 18 22 C 18 24 16 27 16 27 C 15 28 15 30 13 37 C 12 40 12 43 10 45 C 8 52 9 74 12 78 C 12 78 13 80 13 81 C 15 86 15 87 22 91 C 28 94 37 94 42 91 C 43 90 45 88 45 88 C 46 88 51 84 52 81 C 54 79 54 78 55 78 C 55 78 56 76 57 75 C 57 73 58 71 60 70 C 61 68 62 66 63 64 C 63 62 63 60 64 60 C 64 59 64 58 64 58 C 65 58 65 60 66 60 C 67 63 66 73 65 76 C 64 78 63 82 62 90 C 61 94 63 94 74 94 C 86 94 87 94 88 90 C 88 89 89 87 89 87 C 89 87 85 83 84 82 C 84 82 82 82 81 82 C 75 83 75 82 76 63 C 76 57 76 51 76 48 C 76 45 77 42 78 40 C 78 39 78 36 78 33 C 78 31 79 28 79 27 C 80 26 81 21 81 13 C 82 7 81 6 76 5 C 75 4 72 4 69 3 C 66 2 51 1 46 2 M 64 13 C 69 15 69 23 64 35 C 64 38 63 42 62 44 C 61 46 60 49 60 51 C 59 52 58 55 57 57 C 57 59 55 61 55 62 C 54 63 53 65 52 66 C 51 70 42 79 38 80 C 31 82 27 80 24 75 C 22 70 23 42 26 37 C 27 36 28 33 28 31 C 29 28 30 26 36 21 C 39 17 43 15 51 13 C 54 12 63 12 64 13 z" fill="black"/><!-- width=98 height=101 -->
<path id="gl1793" d="M 38 5 C 31 7 30 9 30 19 C 31 29 30 30 25 29 C 18 28 15 30 15 34 C 15 39 17 40 23 39 C 31 39 31 39 30 49 C 30 54 30 58 30 59 C 30 60 29 64 29 67 C 28 70 28 75 28 77 C 27 78 27 81 27 81 C 27 82 27 84 27 86 C 25 88 25 91 25 97 C 25 106 25 106 27 108 C 28 109 29 112 30 113 C 30 114 31 115 32 117 C 33 117 35 118 36 119 C 37 120 39 120 46 120 C 58 120 59 120 64 117 C 68 113 69 111 67 105 C 66 102 66 102 64 103 C 63 105 62 105 61 105 C 61 105 58 106 55 107 C 48 109 44 109 40 105 C 39 104 39 96 40 86 C 40 82 40 79 40 78 C 40 77 40 75 40 72 C 42 66 43 58 43 51 C 43 44 44 40 45 39 C 46 39 50 39 56 40 C 67 41 68 41 70 36 C 72 33 72 31 70 30 C 67 28 68 28 51 29 C 43 30 42 28 43 24 C 43 23 44 19 45 15 C 45 12 45 9 45 9 C 46 8 45 6 43 5 C 42 4 42 4 38 5 z" fill="black"/><!-- width=80 height=127 -->
<path id="gl1538" d="M 45 9 C 43 9 42 10 40 10 C 39 11 37 12 36 13 C 34 13 32 15 31 16 C 31 16 30 18 28 18 C 28 19 27 20 26 21 C 25 22 24 24 24 25 C 21 28 17 36 16 39 C 16 40 16 42 15 43 C 15 44 15 46 15 47 C 15 48 14 51 13 52 C 11 58 14 82 18 87 C 18 87 20 89 21 91 C 22 93 24 94 27 96 C 29 97 32 98 33 99 C 36 100 57 100 61 98 C 63 97 66 96 68 96 C 72 94 73 93 73 87 C 75 81 73 79 67 82 C 66 82 66 82 66 82 C 66 84 62 85 58 85 C 57 86 55 87 54 87 C 52 88 43 88 42 88 C 41 87 39 87 37 86 C 28 83 23 71 27 64 C 28 62 30 62 36 62 C 43 62 47 61 52 59 C 54 58 56 57 57 57 C 63 55 73 46 76 40 C 79 34 79 34 79 28 C 79 23 79 22 78 21 C 77 19 75 18 75 16 C 73 15 72 13 70 13 C 69 12 67 11 66 10 C 64 9 51 8 45 9 M 60 21 C 65 24 66 24 66 30 C 66 33 65 35 64 37 C 63 40 56 45 53 46 C 51 47 49 49 47 49 C 45 50 42 51 39 52 C 37 52 33 54 31 54 C 30 55 28 55 28 55 C 27 55 25 52 25 49 C 26 46 31 33 33 31 C 34 31 35 30 36 28 C 39 21 54 17 60 21 z" fill="black"/><!-- width=86 height=107 -->
<path id="gl3586" d="M 16 39 C 13 39 13 40 13 54 C 12 58 12 62 12 66 C 12 67 13 67 13 67 C 15 69 19 69 22 68 C 24 67 26 63 27 59 C 27 55 27 52 29 51 C 30 51 34 50 42 50 C 46 50 51 49 55 49 C 55 50 55 51 56 51 C 57 53 57 63 54 73 C 53 82 52 92 51 103 C 51 110 51 118 50 121 C 50 124 49 130 49 133 C 49 141 48 143 46 146 C 45 148 45 148 42 148 C 39 148 37 148 37 153 C 36 154 36 156 36 156 C 36 157 36 158 37 159 C 37 159 37 159 38 160 C 44 160 50 160 56 160 C 76 160 76 160 76 155 C 76 150 75 148 68 148 C 64 148 63 148 63 147 C 62 145 63 127 66 115 C 66 114 66 108 66 102 C 68 78 70 54 71 52 C 72 50 73 49 87 50 C 100 51 99 49 99 60 C 100 66 100 67 101 68 C 103 70 111 69 111 66 C 112 62 114 55 114 51 C 114 49 114 46 114 44 C 115 42 115 41 114 40 C 112 39 112 39 65 39 C 39 39 18 39 16 39 z" fill="black"/><!-- width=121 height=166 -->
<path id="gl2048" d="M 46 2 C 44 3 41 3 40 4 C 39 5 36 6 35 7 C 34 7 32 8 31 9 C 30 10 28 11 27 12 C 26 12 24 13 24 15 C 23 16 22 18 21 18 C 21 19 19 21 18 22 C 18 24 16 27 16 27 C 15 28 15 30 13 37 C 12 40 12 43 10 45 C 8 52 9 74 12 78 C 12 78 13 80 13 81 C 15 86 15 87 22 91 C 28 94 37 94 42 91 C 43 90 45 88 45 88 C 46 88 51 84 52 81 C 54 79 54 78 55 78 C 55 78 56 76 57 75 C 57 73 58 71 60 70 C 61 68 62 66 63 64 C 63 62 63 60 64 60 C 64 59 64 58 64 58 C 65 58 65 60 66 60 C 67 63 66 73 65 76 C 64 78 63 82 62 90 C 61 94 63 94 74 94 C 86 94 87 94 88 90 C 88 89 89 87 89 87 C 89 87 85 83 84 82 C 84 82 82 82 81 82 C 75 83 75 82 76 63 C 76 57 76 51 76 48 C 76 45 77 42 78 40 C 78 39 78 36 78 33 C 78 31 79 28 79 27 C 80 26 81 21 81 13 C 82 7 81 6 76 5 C 75 4 72 4 69 3 C 66 2 51 1 46 2 M 64 13 C 69 15 69 23 64 35 C 64 38 63 42 62 44 C 61 46 60 49 60 51 C 59 52 58 55 57 57 C 57 59 55 61 55 62 C 54 63 53 65 52 66 C 51 70 42 79 38 80 C 31 82 27 80 24 75 C 22 70 23 42 26 37 C 27 36 28 33 28 31 C 29 28 30 26 36 21 C 39 17 43 15 51 13 C 54 12 63 12 64 13 z" fill="black"/><!-- width=98 height=101 -->
<path id="gl3336" d="M 16 2 C 14 3 14 3 14 6 C 13 11 17 13 24 13 C 31 13 32 16 29 28 C 28 31 28 39 27 50 C 27 59 27 69 27 70 C 26 72 25 76 25 78 C 25 79 25 82 25 84 C 24 86 24 93 24 99 C 23 105 22 111 22 113 C 22 115 22 117 22 118 C 22 119 21 121 21 123 C 18 129 19 130 24 132 C 25 133 27 133 30 135 C 33 136 34 136 45 136 C 57 137 60 136 63 135 C 64 133 67 133 68 132 C 72 131 80 124 81 121 C 82 120 83 118 84 117 C 85 116 85 115 85 114 C 85 114 87 112 88 109 C 89 106 90 103 91 100 C 91 97 92 93 93 92 C 96 83 95 73 91 57 C 90 54 85 48 82 46 C 79 44 66 45 63 46 C 62 48 60 49 58 49 C 56 51 52 55 52 56 C 52 56 51 57 51 58 C 49 60 48 62 47 64 C 46 66 45 67 44 68 C 43 69 42 70 41 73 C 41 75 40 76 40 78 C 40 76 39 76 39 75 C 38 73 38 64 40 59 C 41 54 42 47 43 34 C 43 19 44 13 45 10 C 47 6 46 4 43 3 C 40 1 19 1 16 2 M 76 60 C 79 63 81 66 81 78 C 81 87 79 94 78 97 C 77 98 76 100 76 103 C 75 108 74 110 67 117 C 60 124 46 128 40 124 C 35 122 34 119 36 114 C 36 112 37 108 37 105 C 38 102 39 99 40 97 C 41 95 42 91 42 89 C 43 87 44 84 45 84 C 45 82 46 81 47 78 C 48 76 49 75 49 75 C 50 75 51 73 52 72 C 54 68 62 60 65 59 C 66 58 68 58 68 58 C 69 57 73 58 76 60 z" fill="black"/><!-- width=102 height=153 -->
<path id="gl16651" d="M 7 9 C 7 9 6 9 6 9 C 5 9 4 14 4 15 C 4 18 5 19 12 19 C 18 19 20 19 21 22 C 21 23 21 24 21 24 C 21 25 21 27 20 28 C 19 30 19 31 18 43 C 17 63 15 82 15 85 C 14 85 13 90 13 94 C 12 118 11 133 9 138 C 9 141 9 141 10 142 C 10 143 12 143 23 143 C 37 144 37 144 37 138 C 38 133 37 132 31 132 C 28 132 25 132 25 132 C 24 131 24 117 25 115 C 26 114 26 114 28 86 C 29 70 30 61 30 58 C 31 55 33 36 32 32 C 32 26 34 15 35 13 C 36 11 35 9 32 9 C 28 8 10 8 7 9 z" fill="black"/><!-- width=44 height=150 -->
<path id="gl1538" d="M 45 9 C 43 9 42 10 40 10 C 39 11 37 12 36 13 C 34 13 32 15 31 16 C 31 16 30 18 28 18 C 28 19 27 20 26 21 C 25 22 24 24 24 25 C 21 28 17 36 16 39 C 16 40 16 42 15 43 C 15 44 15 46 15 47 C 15 48 14 51 13 52 C 11 58 14 82 18 87 C 18 87 20 89 21 91 C 22 93 24 94 27 96 C 29 97 32 98 33 99 C 36 100 57 100 61 98 C 63 97 66 96 68 96 C 72 94 73 93 73 87 C 75 81 73 79 67 82 C 66 82 66 82 66 82 C 66 84 62 85 58 85 C 57 86 55 87 54 87 C 52 88 43 88 42 88 C 41 87 39 87 37 86 C 28 83 23 71 27 64 C 28 62 30 62 36 62 C 43 62 47 61 52 59 C 54 58 56 57 57 57 C 63 55 73 46 76 40 C 79 34 79 34 79 28 C 79 23 79 22 78 21 C 77 19 75 18 75 16 C 73 15 72 13 70 13 C 69 12 67 11 66 10 C 64 9 51 8 45 9 M 60 21 C 65 24 66 24 66 30 C 66 33 65 35 64 37 C 63 40 56 45 53 46 C 51 47 49 49 47 49 C 45 50 42 51 39 52 C 37 52 33 54 31 54 C 30 55 28 55 28 55 C 27 55 25 52 25 49 C 26 46 31 33 33 31 C 34 31 35 30 36 28 C 39 21 54 17 60 21 z" fill="black"/><!-- width=86 height=107 -->
<path id="gl2561" d="M 30 7 C 28 7 25 8 24 9 C 22 10 21 11 20 11 C 18 12 13 16 12 19 C 12 20 10 22 10 22 C 7 24 7 36 9 40 C 11 43 16 49 19 49 C 20 50 22 51 24 52 C 25 52 27 54 29 54 C 31 55 33 56 34 57 C 36 57 37 58 39 59 C 43 60 46 60 46 61 C 46 61 47 62 48 63 C 52 65 54 72 51 78 C 48 85 34 89 24 86 C 18 84 17 83 18 76 C 18 70 17 69 13 69 C 7 69 6 71 6 81 C 6 84 6 87 5 88 C 4 91 5 91 10 94 C 21 99 43 99 49 95 C 49 94 51 94 52 93 C 55 91 60 87 61 85 C 61 84 62 83 63 82 C 66 79 66 64 63 61 C 63 60 61 58 61 57 C 60 56 59 55 58 54 C 57 54 56 53 55 52 C 54 51 51 50 49 49 C 48 49 45 48 43 47 C 42 46 40 45 37 45 C 36 45 34 44 33 43 C 32 42 30 41 27 40 C 21 37 19 32 22 25 C 23 22 23 22 28 19 C 34 17 34 17 40 17 C 51 17 54 19 54 26 C 53 32 55 34 60 34 C 65 34 66 33 66 22 C 66 10 66 10 58 8 C 51 6 36 5 30 7 z" fill="black"/><!-- width=73 height=105 -->
</defs>
<use xlink:href="#gl3587" x="0" y="37"/>
<use xlink:href="#gl3588" x="177" y="36"/>
<use xlink:href="#gl1793" x="260" y="39"/>
<use xlink:href="#gl2304" x="310" y="39"/>
<use xlink:href="#gl1538" x="388" y="60"/>
<use xlink:href="#gl1538" x="465" y="60"/>
<use xlink:href="#gl1793" x="543" y="39"/>
<use xlink:href="#gl3589" x="602" y="60"/>
<use xlink:href="#gl2048" x="684" y="66"/>
<use xlink:href="#gl2304" x="761" y="39"/>
<use xlink:href="#gl4355" x="890" y="30"/>
<use xlink:href="#gl2048" x="1025" y="66"/>
<use xlink:href="#gl3840" x="1113" y="52"/>
<use xlink:href="#gl1538" x="1262" y="59"/>
<use xlink:href="#gl3333" x="1353" y="23"/>
<use xlink:href="#gl4357" x="1485" y="32"/>
<use xlink:href="#gl1538" x="1603" y="60"/>
<use xlink:href="#gl2561" x="1693" y="62"/>
<use xlink:href="#gl2305" x="1770" y="23"/>
<use xlink:href="#gl2304" x="1798" y="39"/>
<use xlink:href="#gl1538" x="1876" y="60"/>
<use xlink:href="#gl3588" x="2376" y="36"/>
<use xlink:href="#gl1538" x="2462" y="59"/>
<use xlink:href="#gl4098" x="2530" y="43"/>
<use xlink:href="#gl2048" x="2642" y="66"/>
<use xlink:href="#gl2304" x="2719" y="39"/>
<use xlink:href="#gl2048" x="2801" y="66"/>
<use xlink:href="#gl1793" x="2886" y="39"/>
<use xlink:href="#gl1538" x="2947" y="60"/>
<use xlink:href="#gl3586" x="3065" y="0"/>
<use xlink:href="#gl2048" x="3161" y="66"/>
<use xlink:href="#gl3336" x="3248" y="23"/>
<use xlink:href="#gl16651" x="3349" y="16"/>
<use xlink:href="#gl1538" x="3388" y="60"/>
<use xlink:href="#gl2561" x="3474" y="62"/>
</svg>
